<?xml version="1.0" encoding="UTF-8" standalone="no"?>
<svg
   xmlns:dc="http://purl.org/dc/elements/1.1/"
   xmlns:cc="http://creativecommons.org/ns#"
   xmlns:rdf="http://www.w3.org/1999/02/22-rdf-syntax-ns#"
   xmlns:svg="http://www.w3.org/2000/svg"
   xmlns="http://www.w3.org/2000/svg"
   xmlns:sodipodi="http://sodipodi.sourceforge.net/DTD/sodipodi-0.dtd"
   xmlns:inkscape="http://www.inkscape.org/namespaces/inkscape"
   width="100%"
   height="100%"
   viewBox="0 0 300 300"
   version="1.1"
   xml:space="preserve"
   style="fill-rule:evenodd;clip-rule:evenodd;stroke-linejoin:round;stroke-miterlimit:1.41421;"
   id="svg12480"
   sodipodi:docname="sq_shield_blue.svg"
   inkscape:version="0.92.4 (5da689c313, 2019-01-14)"><metadata
   id="metadata12486"><rdf:RDF><cc:Work
       rdf:about=""><dc:format>image/svg+xml</dc:format><dc:type
         rdf:resource="http://purl.org/dc/dcmitype/StillImage" /><dc:title></dc:title></cc:Work></rdf:RDF></metadata><defs
   id="defs12484" /><sodipodi:namedview
   pagecolor="#ffffff"
   bordercolor="#666666"
   borderopacity="1"
   objecttolerance="10"
   gridtolerance="10"
   guidetolerance="10"
   inkscape:pageopacity="0"
   inkscape:pageshadow="2"
   inkscape:window-width="1916"
   inkscape:window-height="1029"
   id="namedview12482"
   showgrid="false"
   inkscape:snap-object-midpoints="true"
   inkscape:snap-center="true"
   inkscape:zoom="2.7103125"
   inkscape:cx="88.199008"
   inkscape:cy="150"
   inkscape:window-x="0"
   inkscape:window-y="49"
   inkscape:window-maximized="0"
   inkscape:current-layer="g13480" />
    <g
   id="Background">
        <g
   id="g12477">
            <path
   d="M 300,30.271 C 300,13.564 286.436,0 269.729,0 H 30.271 C 13.564,0 0,13.564 0,30.271 V 269.729 C 0,286.436 13.564,300 30.271,300 H 269.729 C 286.436,300 300,286.436 300,269.729 Z"
   style="fill:#fffefe"
   id="path12473"
   inkscape:connector-curvature="0" />
            <path
   d="m 269.925,0.001 0.195,0.001 0.195,0.004 0.195,0.004 0.195,0.005 0.194,0.007 0.194,0.008 0.193,0.009 0.193,0.011 0.193,0.011 0.193,0.013 0.192,0.014 0.192,0.016 0.191,0.016 0.192,0.018 0.191,0.018 0.19,0.02 0.19,0.022 0.19,0.022 0.19,0.023 0.189,0.025 0.188,0.026 0.189,0.027 0.188,0.028 0.187,0.029 0.188,0.031 0.186,0.031 0.187,0.033 0.186,0.034 0.186,0.035 0.185,0.036 0.185,0.037 0.184,0.039 0.184,0.039 0.184,0.041 0.183,0.042 0.183,0.043 0.182,0.043 0.182,0.046 0.182,0.046 0.181,0.047 0.18,0.048 0.181,0.05 0.179,0.05 0.18,0.052 0.179,0.052 0.178,0.054 0.178,0.055 0.177,0.056 0.177,0.057 0.177,0.058 0.176,0.059 0.175,0.06 0.175,0.061 0.175,0.062 0.174,0.063 0.174,0.064 0.173,0.066 0.172,0.066 0.172,0.067 0.172,0.068 0.171,0.07 0.17,0.07 0.17,0.071 0.17,0.073 0.169,0.073 0.168,0.074 0.168,0.076 0.167,0.076 0.167,0.077 0.166,0.079 0.166,0.079 0.165,0.08 0.165,0.081 0.164,0.083 0.163,0.083 0.163,0.084 0.162,0.085 0.162,0.086 0.161,0.087 0.161,0.088 0.16,0.088 0.159,0.09 0.159,0.091 0.158,0.092 0.158,0.092 0.157,0.094 0.156,0.094 0.156,0.095 0.155,0.096 0.154,0.098 0.154,0.098 0.153,0.099 0.153,0.099 0.152,0.101 0.151,0.102 0.151,0.102 0.15,0.104 0.149,0.104 0.149,0.105 0.148,0.106 0.147,0.107 0.147,0.107 0.146,0.109 0.145,0.109 0.145,0.111 0.144,0.111 0.143,0.112 0.143,0.113 0.142,0.113 0.141,0.115 0.141,0.115 0.139,0.116 0.14,0.117 0.138,0.118 0.138,0.118 0.137,0.12 0.136,0.12 0.135,0.121 0.135,0.122 0.134,0.122 0.134,0.124 0.132,0.124 0.132,0.125 0.131,0.125 0.13,0.127 0.13,0.127 0.129,0.128 0.128,0.129 0.127,0.13 0.127,0.13 0.125,0.131 0.125,0.132 0.124,0.132 0.124,0.134 0.122,0.134 0.122,0.135 0.121,0.135 0.12,0.136 0.12,0.137 0.118,0.138 0.118,0.138 0.117,0.14 0.116,0.139 0.115,0.141 0.115,0.141 0.113,0.142 0.113,0.143 0.112,0.143 0.111,0.144 0.111,0.145 0.109,0.145 0.109,0.146 0.107,0.147 0.107,0.147 0.106,0.148 0.105,0.149 0.104,0.149 0.104,0.15 0.102,0.151 0.102,0.151 0.101,0.152 0.099,0.153 0.099,0.153 0.098,0.154 0.098,0.154 0.096,0.155 0.095,0.156 0.094,0.156 0.094,0.157 0.092,0.158 0.092,0.158 0.091,0.159 0.09,0.159 0.088,0.16 0.088,0.161 0.087,0.161 0.086,0.162 0.085,0.162 0.084,0.163 0.083,0.163 0.083,0.164 0.081,0.165 0.08,0.165 0.079,0.166 0.079,0.166 0.077,0.167 0.076,0.167 0.076,0.168 0.074,0.168 0.073,0.169 0.073,0.17 0.071,0.17 0.07,0.17 0.07,0.171 0.068,0.172 0.067,0.172 0.066,0.172 0.066,0.173 0.064,0.174 0.063,0.174 0.062,0.175 0.061,0.175 0.06,0.175 0.059,0.176 0.058,0.177 0.057,0.177 0.056,0.177 0.055,0.178 0.054,0.178 0.052,0.179 0.052,0.18 0.05,0.179 0.05,0.181 0.048,0.18 0.047,0.181 0.046,0.182 0.046,0.182 0.043,0.182 0.043,0.183 0.042,0.183 0.041,0.184 0.039,0.184 0.039,0.184 0.037,0.185 0.036,0.185 0.035,0.186 0.034,0.186 0.033,0.187 0.031,0.186 0.031,0.188 0.029,0.187 0.028,0.188 0.027,0.189 0.026,0.188 0.025,0.189 0.023,0.19 0.022,0.19 0.022,0.19 0.02,0.19 0.018,0.191 0.018,0.192 0.016,0.191 0.016,0.192 0.014,0.192 0.013,0.193 0.011,0.193 0.011,0.193 0.009,0.193 0.008,0.194 0.007,0.194 0.005,0.195 0.004,0.195 0.004,0.195 0.001,0.195 10e-4,0.196 v 239.458 l -10e-4,0.196 -0.001,0.195 -0.004,0.195 -0.004,0.195 -0.005,0.195 -0.007,0.194 -0.008,0.194 -0.009,0.193 -0.011,0.193 -0.011,0.193 -0.013,0.193 -0.014,0.192 -0.016,0.192 -0.016,0.191 -0.018,0.192 -0.018,0.191 -0.02,0.19 -0.022,0.19 -0.022,0.19 -0.023,0.19 -0.025,0.189 -0.026,0.188 -0.027,0.189 -0.028,0.188 -0.029,0.187 -0.031,0.188 -0.031,0.186 -0.033,0.187 -0.034,0.186 -0.035,0.186 -0.036,0.185 -0.037,0.185 -0.039,0.184 -0.039,0.184 -0.041,0.184 -0.042,0.183 -0.043,0.183 -0.043,0.182 -0.046,0.182 -0.046,0.182 -0.047,0.181 -0.048,0.18 -0.05,0.181 -0.05,0.179 -0.052,0.18 -0.052,0.179 -0.054,0.178 -0.055,0.178 -0.056,0.177 -0.057,0.177 -0.058,0.177 -0.059,0.176 -0.06,0.175 -0.061,0.175 -0.062,0.175 -0.063,0.174 -0.064,0.174 -0.066,0.173 -0.066,0.172 -0.067,0.172 -0.068,0.172 -0.07,0.171 -0.07,0.17 -0.071,0.17 -0.073,0.17 -0.073,0.169 -0.074,0.168 -0.076,0.168 -0.076,0.167 -0.077,0.167 -0.079,0.166 -0.079,0.166 -0.08,0.165 -0.081,0.165 -0.083,0.164 -0.083,0.163 -0.084,0.163 -0.085,0.162 -0.086,0.162 -0.087,0.161 -0.088,0.161 -0.088,0.16 -0.09,0.159 -0.091,0.159 -0.092,0.158 -0.092,0.158 -0.094,0.157 -0.094,0.156 -0.095,0.156 -0.096,0.155 -0.098,0.154 -0.098,0.154 -0.099,0.153 -0.099,0.153 -0.101,0.152 -0.102,0.151 -0.102,0.151 -0.104,0.15 -0.104,0.149 -0.105,0.149 -0.106,0.148 -0.107,0.147 -0.107,0.147 -0.109,0.146 -0.109,0.145 -0.111,0.145 -0.111,0.144 -0.112,0.143 -0.113,0.143 -0.113,0.142 -0.115,0.141 -0.115,0.141 -0.116,0.139 -0.117,0.14 -0.118,0.138 -0.118,0.138 -0.12,0.137 -0.12,0.136 -0.121,0.135 -0.122,0.135 -0.122,0.134 -0.124,0.134 -0.124,0.132 -0.125,0.132 -0.125,0.131 -0.127,0.13 -0.127,0.13 -0.128,0.129 -0.129,0.128 -0.13,0.127 -0.13,0.127 -0.131,0.125 -0.132,0.125 -0.132,0.124 -0.134,0.124 -0.134,0.122 -0.135,0.122 -0.135,0.121 -0.136,0.12 -0.137,0.12 -0.138,0.118 -0.138,0.118 -0.14,0.117 -0.139,0.116 -0.141,0.115 -0.141,0.115 -0.142,0.113 -0.143,0.113 -0.143,0.112 -0.144,0.111 -0.145,0.111 -0.145,0.109 -0.146,0.109 -0.147,0.107 -0.147,0.107 -0.148,0.106 -0.149,0.105 -0.149,0.104 -0.15,0.104 -0.151,0.102 -0.151,0.102 -0.152,0.101 -0.153,0.099 -0.153,0.099 -0.154,0.098 -0.154,0.098 -0.155,0.096 -0.156,0.095 -0.156,0.094 -0.157,0.094 -0.158,0.092 -0.158,0.092 -0.159,0.091 -0.159,0.09 -0.16,0.088 -0.161,0.088 -0.161,0.087 -0.162,0.086 -0.162,0.085 -0.163,0.084 -0.163,0.083 -0.164,0.083 -0.165,0.081 -0.165,0.08 -0.166,0.079 -0.166,0.079 -0.167,0.077 -0.167,0.076 -0.168,0.076 -0.168,0.074 -0.169,0.073 -0.17,0.073 -0.17,0.071 -0.17,0.07 -0.171,0.07 -0.172,0.068 -0.172,0.067 -0.172,0.066 -0.173,0.066 -0.174,0.064 -0.174,0.063 -0.175,0.062 -0.175,0.061 -0.175,0.06 -0.176,0.059 -0.177,0.058 -0.177,0.057 -0.177,0.056 -0.178,0.055 -0.178,0.054 -0.179,0.052 -0.18,0.052 -0.179,0.05 -0.181,0.05 -0.18,0.048 -0.181,0.047 -0.182,0.046 -0.182,0.046 -0.182,0.043 -0.183,0.043 -0.183,0.042 -0.184,0.041 -0.184,0.039 -0.184,0.039 -0.185,0.037 -0.185,0.036 -0.186,0.035 -0.186,0.034 -0.187,0.033 -0.186,0.031 -0.188,0.031 -0.187,0.029 -0.188,0.028 -0.189,0.027 -0.188,0.026 -0.189,0.025 -0.19,0.023 -0.19,0.022 -0.19,0.022 -0.19,0.02 -0.191,0.018 -0.192,0.018 -0.191,0.016 -0.192,0.016 -0.192,0.014 -0.193,0.013 -0.193,0.011 -0.193,0.011 -0.193,0.009 -0.194,0.008 -0.194,0.007 -0.195,0.005 -0.195,0.004 -0.195,0.004 -0.195,0.001 -0.196,10e-4 H 30.271 l -0.196,-10e-4 -0.195,-0.001 -0.195,-0.004 -0.195,-0.004 -0.195,-0.005 -0.194,-0.007 -0.194,-0.008 -0.193,-0.009 -0.193,-0.011 -0.193,-0.011 -0.193,-0.013 -0.192,-0.014 -0.192,-0.016 -0.191,-0.016 -0.192,-0.018 -0.191,-0.018 -0.19,-0.02 -0.19,-0.022 -0.19,-0.022 -0.19,-0.023 -0.189,-0.025 -0.188,-0.026 -0.189,-0.027 -0.188,-0.028 -0.187,-0.029 -0.188,-0.031 -0.186,-0.031 -0.187,-0.033 -0.186,-0.034 -0.186,-0.035 -0.185,-0.036 -0.185,-0.037 -0.184,-0.039 -0.184,-0.039 -0.184,-0.041 -0.183,-0.042 -0.183,-0.043 -0.182,-0.043 -0.182,-0.046 -0.182,-0.046 -0.181,-0.047 -0.18,-0.048 -0.181,-0.05 -0.179,-0.05 -0.18,-0.052 -0.179,-0.052 -0.178,-0.054 -0.178,-0.055 -0.177,-0.056 -0.177,-0.057 -0.177,-0.058 -0.176,-0.059 -0.175,-0.06 -0.175,-0.061 -0.175,-0.062 -0.174,-0.063 -0.174,-0.064 -0.173,-0.066 -0.172,-0.066 -0.172,-0.067 -0.172,-0.068 -0.171,-0.07 -0.17,-0.07 -0.17,-0.071 -0.17,-0.073 -0.169,-0.073 -0.168,-0.074 -0.168,-0.076 -0.167,-0.076 -0.167,-0.077 -0.166,-0.079 -0.166,-0.079 -0.165,-0.08 -0.165,-0.081 -0.164,-0.083 -0.163,-0.083 -0.163,-0.084 -0.162,-0.085 -0.162,-0.086 -0.161,-0.087 -0.161,-0.088 -0.16,-0.088 -0.159,-0.09 -0.159,-0.091 -0.158,-0.092 -0.158,-0.092 -0.157,-0.094 -0.156,-0.094 -0.156,-0.095 -0.155,-0.096 -0.154,-0.098 -0.154,-0.098 -0.153,-0.099 -0.153,-0.099 -0.152,-0.101 -0.151,-0.102 -0.151,-0.102 -0.15,-0.104 -0.149,-0.104 -0.149,-0.105 -0.148,-0.106 -0.147,-0.107 -0.147,-0.107 -0.146,-0.109 -0.145,-0.109 -0.145,-0.111 -0.144,-0.111 -0.143,-0.112 -0.143,-0.113 -0.142,-0.113 -0.141,-0.115 -0.141,-0.115 -0.139,-0.116 -0.14,-0.117 -0.138,-0.118 -0.138,-0.118 -0.137,-0.12 -0.136,-0.12 -0.135,-0.121 -0.135,-0.122 -0.134,-0.122 -0.134,-0.124 -0.132,-0.124 -0.132,-0.125 -0.131,-0.125 -0.13,-0.127 -0.13,-0.127 -0.129,-0.128 -0.128,-0.129 -0.127,-0.13 -0.127,-0.13 -0.125,-0.131 -0.125,-0.132 -0.124,-0.132 -0.124,-0.134 -0.122,-0.134 -0.122,-0.135 -0.121,-0.135 -0.12,-0.136 -0.12,-0.137 -0.118,-0.138 -0.118,-0.138 -0.117,-0.14 L 6.916,288.98 6.801,288.839 6.686,288.698 6.573,288.556 6.46,288.413 6.348,288.27 6.237,288.126 6.126,287.981 6.017,287.836 5.908,287.69 5.801,287.543 5.694,287.396 5.588,287.248 5.483,287.099 5.379,286.95 5.275,286.8 5.173,286.649 5.071,286.498 4.97,286.346 4.871,286.193 4.772,286.04 4.674,285.886 4.576,285.732 4.48,285.577 4.385,285.421 4.291,285.265 4.197,285.108 4.105,284.95 l -0.092,-0.158 -0.091,-0.159 -0.09,-0.159 -0.088,-0.16 -0.088,-0.161 -0.087,-0.161 -0.086,-0.162 -0.085,-0.162 -0.084,-0.163 -0.083,-0.163 -0.083,-0.164 -0.081,-0.165 -0.08,-0.165 -0.079,-0.166 -0.079,-0.166 -0.077,-0.167 -0.076,-0.167 -0.076,-0.168 -0.074,-0.168 -0.073,-0.169 -0.073,-0.17 -0.071,-0.17 -0.07,-0.17 -0.07,-0.171 -0.068,-0.172 -0.067,-0.172 -0.066,-0.172 -0.066,-0.173 -0.064,-0.174 -0.063,-0.174 -0.062,-0.175 -0.061,-0.175 -0.06,-0.175 -0.059,-0.176 -0.058,-0.177 -0.057,-0.177 -0.056,-0.177 -0.055,-0.178 -0.054,-0.178 -0.052,-0.179 -0.052,-0.18 -0.05,-0.179 -0.05,-0.181 -0.048,-0.18 -0.047,-0.181 -0.046,-0.182 -0.046,-0.182 -0.043,-0.182 -0.043,-0.183 -0.042,-0.183 -0.041,-0.184 -0.039,-0.184 -0.039,-0.184 -0.037,-0.185 -0.036,-0.185 -0.035,-0.186 -0.034,-0.186 -0.033,-0.187 -0.031,-0.186 -0.031,-0.188 -0.029,-0.187 -0.028,-0.188 -0.027,-0.189 -0.026,-0.188 -0.025,-0.189 -0.023,-0.19 -0.022,-0.19 -0.022,-0.19 -0.02,-0.19 L 0.138,272.632 0.12,272.44 0.104,272.249 0.088,272.057 0.074,271.865 0.061,271.672 0.05,271.479 0.039,271.286 0.03,271.093 0.022,270.899 0.015,270.705 0.01,270.51 0.006,270.315 0.002,270.12 0.001,269.925 0,269.729 V 30.271 L 0.001,30.075 0.002,29.88 0.006,29.685 0.01,29.49 0.015,29.295 0.022,29.101 0.03,28.907 0.039,28.714 0.05,28.521 0.061,28.328 0.074,28.135 0.088,27.943 0.104,27.751 0.12,27.56 l 0.018,-0.192 0.018,-0.191 0.02,-0.19 0.022,-0.19 0.022,-0.19 0.023,-0.19 0.025,-0.189 0.026,-0.188 0.027,-0.189 0.028,-0.188 0.029,-0.187 0.031,-0.188 0.031,-0.186 0.033,-0.187 0.034,-0.186 0.035,-0.186 0.036,-0.185 0.037,-0.185 0.039,-0.184 0.039,-0.184 0.041,-0.184 0.042,-0.183 0.043,-0.183 0.043,-0.182 0.046,-0.182 0.046,-0.182 0.047,-0.181 0.048,-0.18 0.05,-0.181 0.05,-0.179 0.052,-0.18 0.052,-0.179 0.054,-0.178 0.055,-0.178 0.056,-0.177 0.057,-0.177 0.058,-0.177 0.059,-0.176 0.06,-0.175 0.061,-0.175 0.062,-0.175 0.063,-0.174 0.064,-0.174 0.066,-0.173 0.066,-0.172 0.067,-0.172 0.068,-0.172 0.07,-0.171 0.07,-0.17 0.071,-0.17 0.073,-0.17 L 2.526,18.154 2.6,17.986 2.676,17.818 2.752,17.651 2.829,17.484 2.908,17.318 2.987,17.152 3.067,16.987 3.148,16.822 3.231,16.658 3.314,16.495 3.398,16.332 3.483,16.17 3.569,16.008 3.656,15.847 3.744,15.686 3.832,15.526 3.922,15.367 4.013,15.208 4.105,15.05 4.197,14.892 4.291,14.735 4.385,14.579 4.48,14.423 4.576,14.268 4.674,14.114 4.772,13.96 4.871,13.807 4.97,13.654 5.071,13.502 5.173,13.351 5.275,13.2 5.379,13.05 5.483,12.901 5.588,12.752 5.694,12.604 5.801,12.457 5.908,12.31 6.017,12.164 6.126,12.019 6.237,11.874 6.348,11.73 6.46,11.587 6.573,11.444 6.686,11.302 6.801,11.161 6.916,11.02 7.032,10.881 7.149,10.741 7.267,10.603 7.385,10.465 7.505,10.328 7.625,10.192 7.746,10.057 7.868,9.922 7.99,9.788 8.114,9.654 8.238,9.522 8.363,9.39 8.488,9.259 8.615,9.129 8.742,8.999 8.87,8.87 8.999,8.742 9.129,8.615 9.259,8.488 9.39,8.363 9.522,8.238 9.654,8.114 9.788,7.99 9.922,7.868 10.057,7.746 10.192,7.625 10.328,7.505 10.465,7.385 10.603,7.267 10.741,7.149 10.881,7.032 11.02,6.916 11.161,6.801 11.302,6.686 11.444,6.573 11.587,6.46 11.73,6.348 11.874,6.237 12.019,6.126 12.164,6.017 12.31,5.908 12.457,5.801 12.604,5.694 12.752,5.588 12.901,5.483 13.05,5.379 13.2,5.275 13.351,5.173 13.502,5.071 13.654,4.97 13.807,4.871 13.96,4.772 14.114,4.674 14.268,4.576 14.423,4.48 14.579,4.385 14.735,4.291 14.892,4.197 15.05,4.105 l 0.158,-0.092 0.159,-0.091 0.159,-0.09 0.16,-0.088 0.161,-0.088 0.161,-0.087 0.162,-0.086 0.162,-0.085 0.163,-0.084 0.163,-0.083 0.164,-0.083 0.165,-0.081 0.165,-0.08 0.166,-0.079 0.166,-0.079 0.167,-0.077 0.167,-0.076 0.168,-0.076 0.168,-0.074 0.169,-0.073 0.17,-0.073 0.17,-0.071 0.17,-0.07 0.171,-0.07 0.172,-0.068 0.172,-0.067 0.172,-0.066 0.173,-0.066 0.174,-0.064 0.174,-0.063 0.175,-0.062 0.175,-0.061 0.175,-0.06 0.176,-0.059 0.177,-0.058 0.177,-0.057 0.177,-0.056 0.178,-0.055 0.178,-0.054 0.179,-0.052 0.18,-0.052 0.179,-0.05 0.181,-0.05 0.18,-0.048 0.181,-0.047 0.182,-0.046 0.182,-0.046 0.182,-0.043 0.183,-0.043 0.183,-0.042 0.184,-0.041 0.184,-0.039 0.184,-0.039 0.185,-0.037 0.185,-0.036 0.186,-0.035 0.186,-0.034 0.187,-0.033 0.186,-0.031 0.188,-0.031 0.187,-0.029 0.188,-0.028 0.189,-0.027 0.188,-0.026 0.189,-0.025 0.19,-0.023 0.19,-0.022 0.19,-0.022 0.19,-0.02 L 27.368,0.138 27.56,0.12 27.751,0.104 27.943,0.088 28.135,0.074 28.328,0.061 28.521,0.05 28.714,0.039 28.907,0.03 29.101,0.022 29.295,0.015 29.49,0.01 29.685,0.006 29.88,0.002 30.075,0.001 30.271,0 H 269.729 Z M 30.296,16 h -0.12 l -0.093,0.001 -0.094,0.002 -0.093,0.002 -0.093,0.002 -0.093,0.004 -0.093,0.004 -0.092,0.004 -0.092,0.005 -0.092,0.005 -0.091,0.007 -0.091,0.006 -0.091,0.007 -0.091,0.008 -0.091,0.009 -0.09,0.008 -0.09,0.01 -0.09,0.01 -0.089,0.01 -0.089,0.011 -0.09,0.012 -0.088,0.012 -0.089,0.013 -0.088,0.013 -0.088,0.014 -0.088,0.014 -0.088,0.015 -0.087,0.015 -0.088,0.016 -0.087,0.017 -0.086,0.017 -0.087,0.017 -0.086,0.018 -0.086,0.018 -0.086,0.019 -0.086,0.02 -0.085,0.02 -0.085,0.021 -0.085,0.021 -0.085,0.021 -0.085,0.022 -0.084,0.023 -0.084,0.023 -0.084,0.023 -0.084,0.025 -0.084,0.024 -0.083,0.025 -0.083,0.026 -0.083,0.026 -0.082,0.026 -0.083,0.028 -0.082,0.027 -0.082,0.028 -0.082,0.029 -0.081,0.029 -0.082,0.029 -0.081,0.03 -0.081,0.031 -0.081,0.031 -0.08,0.031 -0.08,0.032 -0.08,0.033 -0.08,0.033 -0.08,0.033 -0.079,0.034 -0.079,0.034 -0.079,0.035 -0.079,0.035 -0.078,0.036 -0.078,0.036 -0.078,0.037 -0.078,0.037 -0.078,0.038 -0.077,0.038 -0.077,0.039 -0.077,0.039 -0.076,0.039 -0.077,0.04 -0.076,0.041 -0.076,0.041 -0.075,0.041 -0.075,0.042 -0.075,0.042 -0.075,0.043 -0.075,0.043 -0.074,0.044 -0.074,0.044 -0.074,0.044 -0.073,0.045 -0.073,0.046 -0.073,0.045 -0.073,0.047 -0.072,0.046 -0.073,0.048 -0.071,0.047 -0.072,0.048 -0.071,0.049 -0.071,0.049 -0.071,0.049 -0.07,0.05 -0.07,0.05 -0.07,0.051 -0.07,0.051 -0.069,0.051 -0.069,0.052 -0.068,0.052 -0.069,0.053 -0.068,0.053 -0.067,0.053 -0.068,0.054 -0.067,0.055 -0.066,0.054 -0.067,0.056 -0.066,0.055 -0.066,0.056 -0.065,0.056 -0.065,0.057 -0.065,0.057 -0.064,0.058 -0.064,0.057 -0.064,0.059 -0.063,0.058 -0.063,0.059 -0.063,0.06 -0.062,0.06 -0.062,0.06 -0.062,0.06 -0.061,0.061 -0.061,0.061 -0.06,0.062 -0.06,0.062 -0.06,0.062 -0.06,0.063 -0.059,0.063 -0.058,0.063 -0.059,0.064 -0.057,0.064 -0.058,0.064 -0.057,0.065 -0.057,0.065 -0.056,0.065 -0.056,0.066 -0.055,0.066 -0.056,0.067 -0.054,0.066 -0.055,0.067 -0.054,0.068 -0.053,0.067 -0.053,0.068 -0.053,0.069 -0.052,0.068 -0.052,0.069 -0.051,0.069 -0.051,0.07 -0.051,0.07 -0.05,0.07 -0.05,0.07 -0.049,0.071 -0.049,0.071 -0.049,0.071 -0.048,0.072 -0.047,0.071 -0.048,0.073 -0.046,0.072 -0.047,0.073 -0.045,0.073 -0.046,0.073 -0.045,0.073 -0.044,0.074 -0.044,0.074 -0.044,0.074 -0.043,0.075 -0.043,0.075 -0.042,0.075 -0.042,0.075 -0.041,0.075 -0.041,0.076 -0.041,0.076 -0.04,0.077 -0.039,0.076 -0.039,0.077 -0.039,0.077 -0.038,0.077 -0.038,0.078 -0.037,0.078 -0.037,0.078 -0.036,0.078 -0.036,0.078 -0.035,0.079 -0.035,0.079 -0.034,0.079 -0.034,0.079 -0.033,0.08 -0.033,0.08 -0.033,0.08 -0.032,0.08 -0.031,0.08 -0.031,0.081 -0.031,0.081 -0.03,0.081 -0.029,0.082 -0.029,0.081 -0.029,0.082 -0.028,0.082 -0.027,0.082 -0.028,0.083 -0.026,0.082 -0.026,0.083 -0.026,0.083 -0.025,0.083 -0.024,0.084 -0.025,0.084 -0.023,0.084 -0.023,0.084 -0.023,0.084 -0.022,0.085 -0.021,0.085 -0.021,0.085 -0.021,0.085 -0.02,0.085 -0.02,0.086 -0.019,0.086 -0.018,0.086 -0.018,0.086 -0.017,0.087 -0.017,0.086 -0.017,0.087 -0.016,0.088 -0.015,0.087 -0.015,0.088 -0.014,0.088 -0.014,0.088 -0.013,0.088 -0.013,0.089 -0.012,0.088 -0.012,0.09 -0.011,0.089 -0.01,0.089 -0.01,0.09 -0.01,0.09 -0.008,0.09 -0.009,0.091 -0.008,0.091 -0.007,0.091 -0.006,0.091 -0.007,0.091 -0.005,0.092 -0.005,0.092 -0.004,0.092 -0.004,0.093 -0.004,0.093 -0.002,0.093 -0.002,0.093 -0.002,0.094 L 16,30.176 v 0.12 239.408 0.12 l 0.001,0.093 0.002,0.094 0.002,0.093 0.002,0.093 0.004,0.093 0.004,0.093 0.004,0.092 0.005,0.092 0.005,0.092 0.007,0.091 0.006,0.091 0.007,0.091 0.008,0.091 0.009,0.091 0.008,0.09 0.01,0.09 0.01,0.09 0.01,0.089 0.011,0.089 0.012,0.09 0.012,0.088 0.013,0.089 0.013,0.088 0.014,0.088 0.014,0.088 0.015,0.088 0.015,0.087 0.016,0.087 0.017,0.087 0.017,0.087 0.017,0.087 0.018,0.086 0.019,0.086 0.018,0.086 0.02,0.086 0.02,0.085 0.021,0.085 0.021,0.086 0.021,0.084 0.022,0.085 0.023,0.084 0.023,0.084 0.023,0.084 0.025,0.084 0.024,0.084 0.025,0.083 0.026,0.083 0.026,0.083 0.026,0.083 0.028,0.082 0.027,0.082 0.028,0.082 0.029,0.082 0.029,0.081 0.029,0.082 0.03,0.081 0.031,0.081 0.031,0.081 0.031,0.08 0.032,0.08 0.033,0.08 0.033,0.08 0.033,0.08 0.034,0.08 0.034,0.078 0.035,0.079 0.035,0.079 0.036,0.078 0.036,0.078 0.037,0.078 0.037,0.078 0.038,0.078 0.038,0.077 0.039,0.077 0.039,0.077 0.039,0.077 0.04,0.076 0.04,0.075 0.041,0.076 0.042,0.077 0.042,0.074 0.042,0.075 0.043,0.075 0.043,0.074 0.044,0.075 0.044,0.074 0.044,0.074 0.045,0.073 0.045,0.073 0.047,0.074 0.046,0.072 0.046,0.072 0.048,0.073 0.048,0.072 0.047,0.071 0.049,0.071 0.048,0.071 0.05,0.071 0.05,0.07 0.05,0.071 0.051,0.069 0.05,0.069 0.052,0.07 0.052,0.069 0.052,0.068 0.053,0.069 0.053,0.068 0.053,0.067 0.055,0.068 0.054,0.067 0.055,0.067 0.054,0.065 0.056,0.067 0.056,0.066 0.056,0.065 0.057,0.065 0.057,0.065 0.057,0.064 0.058,0.064 0.059,0.064 0.059,0.064 0.059,0.062 0.058,0.062 0.061,0.064 0.06,0.061 0.06,0.062 0.061,0.061 0.061,0.061 0.062,0.061 0.061,0.059 0.063,0.06 0.063,0.06 0.063,0.059 0.063,0.058 0.064,0.059 0.064,0.057 0.064,0.058 0.065,0.057 0.065,0.057 0.065,0.056 0.066,0.056 0.066,0.055 0.067,0.056 0.066,0.054 0.068,0.055 0.067,0.054 0.067,0.053 0.068,0.053 0.068,0.053 0.068,0.052 0.07,0.052 0.069,0.052 0.069,0.05 0.071,0.051 0.07,0.05 0.07,0.05 0.071,0.05 0.071,0.048 0.071,0.049 0.071,0.048 0.073,0.047 0.072,0.048 0.072,0.047 0.072,0.045 0.073,0.046 0.074,0.046 0.073,0.045 0.074,0.044 0.074,0.045 0.074,0.043 0.074,0.043 0.076,0.043 0.074,0.042 0.075,0.042 0.076,0.041 0.076,0.041 0.077,0.041 0.076,0.04 0.077,0.039 0.076,0.04 0.077,0.038 0.077,0.038 0.077,0.038 0.078,0.037 0.078,0.036 0.079,0.037 0.079,0.036 0.078,0.035 0.078,0.035 0.079,0.034 0.08,0.034 0.081,0.034 0.078,0.032 0.081,0.033 0.081,0.032 0.079,0.031 0.081,0.031 0.081,0.031 0.082,0.03 0.081,0.029 0.08,0.029 0.083,0.029 0.082,0.028 0.082,0.028 0.083,0.027 0.082,0.026 0.082,0.026 0.085,0.026 0.083,0.025 0.082,0.024 0.084,0.024 0.085,0.024 0.084,0.023 0.084,0.023 0.085,0.022 0.086,0.022 0.083,0.02 0.086,0.021 0.085,0.02 0.085,0.019 0.087,0.02 0.086,0.018 0.086,0.018 0.086,0.017 0.088,0.017 0.087,0.017 0.087,0.016 0.087,0.015 0.087,0.015 0.088,0.014 0.089,0.014 0.088,0.013 0.088,0.013 0.091,0.012 0.088,0.012 0.089,0.011 0.089,0.01 0.09,0.01 0.09,0.01 0.09,0.008 0.09,0.009 0.091,0.008 0.092,0.007 0.092,0.007 0.091,0.006 0.09,0.005 0.093,0.005 0.093,0.004 0.092,0.004 0.093,0.004 0.092,0.002 0.094,0.002 0.094,0.002 0.093,10e-4 h 0.12 239.408 0.12 l 0.093,-10e-4 0.094,-0.002 0.094,-0.002 0.092,-0.002 0.093,-0.004 0.092,-0.004 0.093,-0.004 0.093,-0.005 0.09,-0.005 0.091,-0.006 0.092,-0.007 0.092,-0.007 0.091,-0.008 0.09,-0.009 0.09,-0.008 0.09,-0.01 0.09,-0.01 0.089,-0.01 0.089,-0.011 0.088,-0.012 0.091,-0.012 0.088,-0.013 0.088,-0.013 0.089,-0.014 0.088,-0.014 0.087,-0.015 0.087,-0.015 0.087,-0.016 0.087,-0.017 0.088,-0.017 0.086,-0.017 0.086,-0.018 0.086,-0.018 0.087,-0.02 0.085,-0.019 0.085,-0.02 0.086,-0.021 0.084,-0.02 0.085,-0.022 0.085,-0.022 0.084,-0.023 0.084,-0.023 0.085,-0.024 0.084,-0.024 0.082,-0.024 0.083,-0.025 0.085,-0.026 0.082,-0.026 0.082,-0.026 0.083,-0.028 0.082,-0.027 0.082,-0.028 0.082,-0.029 0.081,-0.029 0.081,-0.029 0.082,-0.03 0.081,-0.031 0.081,-0.031 0.079,-0.031 0.081,-0.032 0.081,-0.033 0.078,-0.032 0.081,-0.034 0.081,-0.034 0.077,-0.034 0.078,-0.035 0.079,-0.035 0.079,-0.036 0.079,-0.036 0.078,-0.037 0.078,-0.037 0.077,-0.038 0.076,-0.038 0.078,-0.039 0.077,-0.039 0.076,-0.039 0.077,-0.04 0.075,-0.04 0.076,-0.041 0.077,-0.043 0.074,-0.041 0.075,-0.042 0.076,-0.043 0.074,-0.043 0.074,-0.043 0.074,-0.045 0.074,-0.044 0.073,-0.045 0.073,-0.046 0.074,-0.046 0.072,-0.045 0.071,-0.047 0.074,-0.048 0.072,-0.048 0.071,-0.047 0.071,-0.049 0.07,-0.048 0.072,-0.05 0.07,-0.05 0.071,-0.05 0.07,-0.051 0.068,-0.05 0.07,-0.052 0.07,-0.053 0.067,-0.051 0.069,-0.053 0.068,-0.053 0.067,-0.053 0.067,-0.054 0.068,-0.055 0.067,-0.055 0.065,-0.054 0.067,-0.057 0.066,-0.055 0.065,-0.056 0.065,-0.057 0.064,-0.057 0.065,-0.058 0.064,-0.057 0.064,-0.059 0.064,-0.059 0.062,-0.058 0.063,-0.06 0.063,-0.06 0.061,-0.059 0.062,-0.061 0.061,-0.061 0.061,-0.061 0.061,-0.062 0.059,-0.061 0.06,-0.063 0.06,-0.063 0.058,-0.062 0.059,-0.064 0.059,-0.064 0.057,-0.064 0.058,-0.065 0.057,-0.064 0.057,-0.065 0.056,-0.065 0.055,-0.066 0.057,-0.067 0.054,-0.065 0.055,-0.067 0.055,-0.068 0.054,-0.067 0.053,-0.067 0.053,-0.068 0.053,-0.069 0.051,-0.067 0.053,-0.07 0.052,-0.07 0.05,-0.068 0.051,-0.07 0.05,-0.071 0.05,-0.07 0.05,-0.072 0.048,-0.07 0.049,-0.071 0.047,-0.071 0.048,-0.072 0.048,-0.074 0.047,-0.071 0.045,-0.072 0.046,-0.074 0.046,-0.073 0.045,-0.073 0.044,-0.074 0.045,-0.074 0.043,-0.074 0.043,-0.074 0.043,-0.076 0.042,-0.075 0.041,-0.074 0.043,-0.077 0.041,-0.076 0.04,-0.075 0.04,-0.077 0.039,-0.076 0.039,-0.077 0.039,-0.078 0.038,-0.076 0.038,-0.077 0.037,-0.078 0.037,-0.078 0.036,-0.079 0.036,-0.079 0.035,-0.079 0.035,-0.078 0.034,-0.077 0.034,-0.081 0.034,-0.081 0.032,-0.078 0.033,-0.081 0.032,-0.081 0.031,-0.079 0.031,-0.081 0.031,-0.081 0.03,-0.082 0.029,-0.081 0.029,-0.081 0.029,-0.082 0.028,-0.082 0.027,-0.082 0.028,-0.083 0.026,-0.082 0.026,-0.082 0.026,-0.085 0.025,-0.083 0.024,-0.082 0.024,-0.084 0.024,-0.085 0.023,-0.084 0.023,-0.084 0.022,-0.085 0.022,-0.085 0.02,-0.084 0.021,-0.086 0.02,-0.085 0.019,-0.085 0.02,-0.087 0.018,-0.086 0.018,-0.086 0.017,-0.086 0.017,-0.088 0.017,-0.087 0.016,-0.087 0.015,-0.087 0.015,-0.087 0.014,-0.088 0.014,-0.089 0.013,-0.088 0.013,-0.088 0.012,-0.091 0.012,-0.088 0.011,-0.089 0.01,-0.089 0.01,-0.09 0.01,-0.09 0.008,-0.09 0.009,-0.09 0.008,-0.091 0.007,-0.092 0.007,-0.092 0.006,-0.091 0.005,-0.09 0.005,-0.093 0.004,-0.093 0.004,-0.092 0.004,-0.093 0.002,-0.092 0.002,-0.094 0.002,-0.094 10e-4,-0.093 v -0.12 -239.408 -0.12 l -10e-4,-0.093 -0.002,-0.094 -0.002,-0.094 -0.002,-0.092 -0.004,-0.093 -0.004,-0.092 -0.004,-0.093 -0.005,-0.093 -0.005,-0.09 -0.006,-0.091 -0.007,-0.092 -0.007,-0.092 -0.008,-0.091 -0.009,-0.09 -0.008,-0.09 -0.01,-0.09 -0.01,-0.09 -0.01,-0.089 -0.011,-0.089 -0.012,-0.088 -0.012,-0.091 -0.013,-0.088 -0.013,-0.088 -0.014,-0.089 -0.014,-0.088 -0.015,-0.087 -0.015,-0.087 -0.016,-0.087 -0.017,-0.087 -0.017,-0.088 -0.017,-0.086 -0.018,-0.086 -0.018,-0.086 -0.02,-0.087 -0.019,-0.085 -0.02,-0.085 -0.021,-0.086 -0.02,-0.083 -0.022,-0.086 -0.022,-0.085 -0.023,-0.084 -0.023,-0.084 -0.024,-0.085 -0.024,-0.084 -0.024,-0.082 -0.025,-0.083 -0.026,-0.085 -0.026,-0.082 -0.026,-0.082 -0.027,-0.083 -0.028,-0.082 -0.028,-0.082 -0.029,-0.083 -0.029,-0.08 -0.029,-0.081 -0.03,-0.082 -0.031,-0.081 -0.031,-0.081 -0.031,-0.079 -0.032,-0.081 -0.033,-0.081 -0.032,-0.078 -0.034,-0.081 -0.034,-0.08 -0.034,-0.079 -0.035,-0.078 -0.035,-0.078 -0.036,-0.079 -0.037,-0.079 -0.036,-0.078 -0.037,-0.078 -0.038,-0.077 -0.038,-0.077 -0.038,-0.077 -0.04,-0.076 -0.039,-0.077 -0.04,-0.076 -0.041,-0.077 -0.041,-0.076 -0.041,-0.076 -0.042,-0.075 -0.042,-0.074 -0.043,-0.076 -0.043,-0.074 -0.043,-0.074 -0.045,-0.074 -0.044,-0.074 -0.045,-0.073 -0.046,-0.074 -0.046,-0.073 -0.045,-0.072 -0.047,-0.072 -0.048,-0.072 -0.047,-0.073 -0.048,-0.071 -0.049,-0.071 -0.048,-0.071 -0.05,-0.071 -0.05,-0.07 -0.05,-0.07 -0.051,-0.071 -0.05,-0.069 -0.052,-0.069 -0.052,-0.07 -0.052,-0.068 -0.053,-0.068 -0.053,-0.068 -0.053,-0.067 -0.054,-0.067 -0.055,-0.068 -0.054,-0.066 -0.056,-0.067 -0.055,-0.066 -0.056,-0.066 -0.056,-0.065 -0.057,-0.065 -0.057,-0.065 -0.058,-0.064 -0.057,-0.064 -0.059,-0.064 -0.058,-0.063 -0.059,-0.063 -0.06,-0.063 -0.06,-0.063 -0.059,-0.061 -0.061,-0.062 -0.061,-0.061 -0.061,-0.061 -0.062,-0.06 -0.061,-0.06 -0.064,-0.061 -0.062,-0.058 -0.062,-0.059 -0.064,-0.059 -0.064,-0.059 -0.064,-0.058 -0.064,-0.057 -0.065,-0.057 -0.065,-0.057 -0.065,-0.056 -0.066,-0.056 -0.067,-0.056 -0.065,-0.054 -0.067,-0.055 -0.067,-0.054 -0.068,-0.055 -0.067,-0.053 -0.068,-0.053 -0.069,-0.053 -0.068,-0.052 -0.069,-0.052 -0.07,-0.052 -0.069,-0.05 -0.069,-0.051 -0.071,-0.05 -0.07,-0.05 -0.071,-0.05 -0.071,-0.048 -0.071,-0.049 -0.071,-0.047 -0.072,-0.048 -0.073,-0.048 -0.072,-0.046 -0.072,-0.046 -0.074,-0.047 -0.073,-0.045 -0.073,-0.045 -0.074,-0.044 -0.074,-0.044 -0.075,-0.044 -0.074,-0.043 -0.075,-0.043 -0.075,-0.042 -0.074,-0.042 -0.077,-0.042 -0.076,-0.041 -0.075,-0.04 -0.076,-0.04 -0.077,-0.039 -0.077,-0.039 -0.077,-0.039 -0.077,-0.038 -0.078,-0.038 -0.078,-0.037 -0.078,-0.037 -0.078,-0.036 -0.078,-0.036 -0.079,-0.035 -0.079,-0.035 -0.078,-0.034 -0.08,-0.034 -0.08,-0.033 -0.08,-0.033 -0.08,-0.033 -0.08,-0.032 -0.08,-0.031 -0.081,-0.031 -0.081,-0.031 -0.081,-0.03 -0.082,-0.029 -0.081,-0.029 -0.082,-0.029 -0.082,-0.028 -0.082,-0.027 -0.082,-0.028 -0.083,-0.026 -0.083,-0.026 -0.083,-0.026 -0.083,-0.025 -0.084,-0.024 -0.084,-0.025 -0.084,-0.023 -0.084,-0.023 -0.084,-0.023 -0.085,-0.022 -0.084,-0.021 -0.086,-0.021 -0.085,-0.021 -0.085,-0.02 -0.086,-0.02 -0.086,-0.018 -0.086,-0.019 -0.086,-0.018 -0.087,-0.017 -0.087,-0.017 -0.087,-0.017 -0.087,-0.016 -0.087,-0.015 -0.088,-0.015 -0.088,-0.014 -0.088,-0.014 -0.088,-0.013 -0.089,-0.013 -0.088,-0.012 -0.09,-0.012 -0.089,-0.011 -0.089,-0.01 -0.09,-0.01 -0.09,-0.01 -0.09,-0.008 -0.091,-0.009 -0.091,-0.008 -0.091,-0.007 -0.091,-0.006 -0.091,-0.007 -0.092,-0.005 -0.092,-0.005 -0.092,-0.004 -0.093,-0.004 -0.093,-0.004 -0.093,-0.002 -0.093,-0.002 -0.094,-0.002 L 269.824,16 h -0.12 z"
   style="fill:#2d67b9;fill-opacity:1"
   id="path12475"
   inkscape:connector-curvature="0" />
        </g>
    <g
   transform="translate(-2.13633,-7.42423)"
   style="clip-rule:evenodd;fill-rule:evenodd;stroke-linejoin:round;stroke-miterlimit:1.41420996"
   id="g13482"><g
     transform="translate(2.13633,7.44273)"
     id="g13474"><path
       d="M 150,251.643 C 149.913,251.602 119.057,237.1 95.732,195.074 65.581,140.753 67.191,75.178 67.191,75.178 122.952,75.971 149.943,48.379 150,48.32 c 0.057,0.059 27.048,27.651 82.809,26.858 0,0 1.61,65.575 -28.541,119.896 C 180.91,237.159 150,251.643 150,251.643 Z"
       style="fill:#2967b9;fill-opacity:1"
       id="path13472"
       inkscape:connector-curvature="0" /></g><g
     transform="matrix(0.853263,0,0,0.84723,24.1469,29.7079)"
     id="g13480"><path
       d="M 150,251.643 C 149.913,251.602 119.057,237.1 95.732,195.074 65.581,140.753 67.191,75.178 67.191,75.178 122.952,75.971 149.943,48.379 150,48.32 c 0.057,0.059 27.048,27.651 82.809,26.858 0,0 1.61,65.575 -28.541,119.896 C 180.91,237.159 150,251.643 150,251.643 Z"
       style="display:inline;fill:#2967b9;fill-opacity:0"
       id="path13476"
       inkscape:connector-curvature="0" /><path
       d="m 150.084,48.405 0.102,0.099 0.141,0.136 0.18,0.171 0.221,0.206 0.26,0.237 0.145,0.131 0.155,0.139 0.164,0.146 0.175,0.153 0.185,0.16 0.194,0.168 0.205,0.174 0.215,0.182 0.224,0.187 0.235,0.194 0.244,0.201 0.255,0.206 0.265,0.213 0.274,0.218 0.285,0.224 0.294,0.229 0.305,0.234 0.315,0.24 0.324,0.244 0.335,0.25 0.345,0.254 0.355,0.258 0.364,0.263 0.375,0.267 0.385,0.271 0.395,0.275 0.405,0.279 0.416,0.282 0.425,0.285 0.435,0.289 0.446,0.291 0.455,0.295 0.466,0.297 0.476,0.3 0.486,0.302 0.496,0.305 0.252,0.153 0.254,0.153 0.257,0.154 0.259,0.155 0.262,0.155 0.265,0.155 0.267,0.156 0.269,0.156 0.272,0.156 0.275,0.157 0.277,0.157 0.28,0.158 0.282,0.157 0.285,0.158 0.287,0.159 0.29,0.158 0.292,0.159 0.295,0.158 0.298,0.159 0.3,0.16 0.302,0.159 0.305,0.159 0.308,0.16 0.31,0.159 0.313,0.16 0.315,0.159 0.318,0.16 0.321,0.159 0.323,0.16 0.325,0.159 0.328,0.16 0.331,0.159 0.333,0.159 0.336,0.159 0.338,0.159 0.341,0.158 0.343,0.159 0.346,0.158 0.348,0.158 0.351,0.158 0.354,0.157 0.356,0.158 0.359,0.156 0.361,0.157 0.364,0.156 0.367,0.156 0.368,0.155 0.372,0.155 0.374,0.155 0.377,0.154 0.379,0.153 0.382,0.153 0.384,0.153 0.387,0.152 0.389,0.151 0.393,0.151 0.394,0.151 0.397,0.149 0.4,0.149 0.402,0.149 0.405,0.147 0.408,0.147 0.41,0.147 0.412,0.145 0.416,0.145 0.417,0.144 0.421,0.143 0.423,0.143 0.425,0.141 0.428,0.141 0.431,0.14 0.433,0.138 0.436,0.138 0.438,0.138 0.441,0.136 0.444,0.135 0.446,0.134 0.449,0.133 0.451,0.132 0.454,0.131 0.456,0.13 0.459,0.129 0.462,0.127 0.464,0.127 0.467,0.125 0.469,0.125 0.472,0.123 0.475,0.121 0.477,0.121 0.48,0.119 0.482,0.118 0.485,0.117 0.487,0.115 0.49,0.114 0.493,0.113 0.495,0.112 0.498,0.109 0.501,0.109 0.503,0.107 0.506,0.106 0.508,0.104 0.511,0.102 0.513,0.102 0.516,0.099 0.519,0.098 0.521,0.097 0.524,0.094 0.527,0.094 0.529,0.091 0.531,0.09 0.535,0.088 0.536,0.087 0.54,0.085 0.542,0.083 0.545,0.081 0.547,0.08 0.55,0.078 0.552,0.075 0.556,0.075 0.557,0.072 0.561,0.07 0.563,0.069 0.565,0.066 0.568,0.065 0.571,0.062 0.574,0.061 0.576,0.059 0.578,0.056 0.582,0.055 0.583,0.053 0.587,0.05 0.589,0.048 0.592,0.047 0.594,0.044 0.597,0.042 0.6,0.039 0.602,0.038 0.605,0.035 0.607,0.034 0.61,0.03 0.613,0.029 0.615,0.026 0.618,0.024 0.621,0.022 0.623,0.019 0.626,0.017 0.628,0.015 0.631,0.012 0.634,0.009 0.636,0.007 0.639,0.005 0.642,0.002 h 0.644 l 0.647,-0.003 0.649,-0.005 0.653,-0.008 0.003,0.189 0.004,0.235 0.003,0.325 0.003,0.415 0.002,0.501 -0.001,0.588 -0.004,0.67 -0.008,0.753 -0.005,0.407 -0.007,0.426 -0.008,0.447 -0.009,0.465 -0.011,0.485 -0.013,0.503 -0.014,0.523 -0.016,0.541 -0.018,0.559 -0.02,0.577 -0.022,0.595 -0.024,0.613 -0.026,0.63 -0.029,0.648 -0.031,0.664 -0.034,0.681 -0.036,0.698 -0.04,0.714 -0.042,0.73 -0.045,0.746 -0.048,0.761 -0.051,0.778 -0.055,0.792 -0.057,0.807 -0.061,0.822 -0.065,0.837 -0.068,0.851 -0.072,0.865 -0.076,0.879 -0.08,0.893 -0.084,0.906 -0.087,0.919 -0.092,0.933 -0.097,0.945 -0.1,0.958 -0.105,0.97 -0.11,0.982 -0.114,0.995 -0.119,1.005 -0.124,1.018 -0.064,0.513 -0.065,0.516 -0.067,0.518 -0.067,0.521 -0.069,0.524 -0.07,0.527 -0.072,0.529 -0.073,0.532 -0.074,0.535 -0.075,0.537 -0.077,0.539 -0.078,0.542 -0.08,0.545 -0.081,0.547 -0.082,0.55 -0.084,0.552 -0.085,0.554 -0.087,0.556 -0.088,0.559 -0.09,0.562 -0.091,0.563 -0.092,0.566 -0.094,0.568 -0.096,0.57 -0.097,0.572 -0.098,0.575 -0.101,0.576 -0.101,0.579 -0.104,0.581 -0.105,0.582 -0.106,0.585 -0.108,0.587 -0.11,0.588 -0.111,0.591 -0.113,0.592 -0.115,0.594 -0.116,0.596 -0.118,0.598 -0.12,0.6 -0.121,0.601 -0.123,0.603 -0.125,0.605 -0.126,0.606 -0.129,0.609 -0.13,0.609 -0.132,0.612 -0.133,0.612 -0.136,0.615 -0.137,0.615 -0.139,0.618 -0.141,0.619 -0.143,0.62 -0.144,0.621 -0.147,0.623 -0.148,0.624 -0.15,0.626 -0.152,0.627 -0.154,0.628 -0.156,0.629 -0.158,0.631 -0.16,0.631 -0.162,0.633 -0.164,0.634 -0.166,0.635 -0.167,0.636 -0.17,0.637 -0.172,0.638 -0.174,0.639 -0.176,0.64 -0.178,0.641 -0.18,0.642 -0.182,0.643 -0.184,0.643 -0.187,0.645 -0.188,0.645 -0.191,0.646 -0.192,0.646 -0.195,0.648 -0.197,0.648 -0.2,0.648 -0.201,0.649 -0.204,0.65 -0.206,0.651 -0.208,0.651 -0.21,0.651 -0.213,0.652 -0.214,0.652 -0.218,0.653 -0.219,0.653 -0.222,0.654 -0.224,0.654 -0.226,0.654 -0.229,0.655 -0.231,0.654 -0.233,0.655 -0.236,0.656 -0.238,0.655 -0.241,0.656 -0.242,0.655 -0.246,0.656 -0.248,0.656 -0.25,0.656 -0.252,0.656 -0.256,0.656 -0.257,0.655 -0.26,0.656 -0.263,0.656 -0.265,0.655 -0.268,0.656 -0.27,0.655 -0.273,0.655 -0.275,0.655 -0.278,0.654 -0.28,0.655 -0.283,0.654 -0.286,0.653 -0.288,0.653 -0.291,0.653 -0.294,0.652 -0.296,0.652 -0.299,0.652 -0.302,0.651 -0.304,0.65 -0.307,0.65 -0.309,0.649 -0.313,0.649 -0.315,0.648 -0.318,0.647 -0.321,0.647 -0.323,0.646 -0.326,0.645 -0.329,0.644 -0.332,0.644 -0.335,0.642 -0.337,0.642 -0.341,0.641 -0.343,0.64 -0.346,0.639 -0.349,0.638 -0.352,0.637 -0.274,0.492 -0.275,0.49 -0.275,0.487 -0.276,0.484 -0.277,0.482 -0.277,0.479 -0.278,0.477 -0.279,0.474 -0.279,0.472 -0.28,0.47 -0.28,0.467 -0.281,0.464 -0.281,0.462 -0.282,0.459 -0.282,0.457 -0.283,0.455 -0.283,0.452 -0.284,0.45 -0.284,0.447 -0.285,0.445 -0.285,0.442 -0.285,0.44 -0.286,0.438 -0.286,0.435 -0.286,0.432 -0.287,0.431 -0.288,0.428 -0.287,0.425 -0.288,0.423 -0.288,0.421 -0.289,0.418 -0.288,0.416 -0.289,0.414 -0.289,0.411 -0.29,0.408 -0.289,0.407 -0.29,0.404 -0.29,0.402 -0.29,0.399 -0.291,0.397 -0.29,0.395 -0.291,0.392 -0.29,0.39 -0.291,0.388 -0.291,0.385 -0.291,0.383 -0.291,0.381 -0.291,0.378 -0.291,0.377 -0.291,0.373 -0.291,0.372 -0.291,0.369 -0.291,0.367 -0.291,0.365 -0.291,0.362 -0.291,0.361 -0.291,0.357 -0.291,0.356 -0.291,0.353 -0.29,0.352 -0.29,0.348 -0.291,0.347 -0.29,0.345 -0.29,0.342 -0.289,0.34 -0.29,0.337 -0.289,0.336 -0.289,0.333 -0.289,0.331 -0.289,0.329 -0.288,0.327 -0.288,0.324 -0.288,0.323 -0.287,0.32 -0.287,0.318 -0.287,0.316 -0.286,0.313 -0.286,0.312 -0.286,0.309 -0.285,0.307 -0.285,0.305 -0.284,0.303 -0.284,0.3 -0.284,0.299 -0.283,0.296 -0.282,0.295 -0.282,0.292 -0.282,0.29 -0.281,0.288 -0.281,0.285 -0.279,0.284 -0.28,0.282 -0.279,0.279 -0.278,0.278 -0.278,0.275 -0.277,0.273 -0.276,0.271 -0.276,0.27 -0.275,0.267 -0.274,0.265 -0.274,0.263 -0.273,0.26 -0.272,0.259 -0.272,0.257 -0.271,0.255 -0.27,0.252 -0.269,0.251 -0.269,0.249 -0.268,0.246 -0.267,0.245 -0.266,0.243 -0.265,0.24 -0.265,0.239 -0.263,0.236 -0.263,0.235 -0.262,0.233 -0.521,0.459 -0.517,0.451 -0.513,0.444 -0.51,0.435 -0.505,0.428 -0.501,0.421 -0.497,0.412 -0.493,0.405 -0.488,0.397 -0.483,0.39 -0.479,0.382 -0.474,0.374 -0.469,0.367 -0.464,0.36 -0.459,0.352 -0.453,0.345 -0.448,0.337 -0.443,0.33 -0.437,0.323 -0.431,0.316 -0.426,0.309 -0.419,0.301 -0.414,0.294 -0.407,0.288 -0.401,0.28 -0.395,0.273 -0.388,0.266 -0.382,0.26 -0.375,0.252 -0.368,0.246 -0.361,0.238 -0.355,0.232 -0.347,0.226 -0.34,0.218 -0.332,0.212 -0.325,0.206 -0.318,0.198 -0.309,0.193 -0.302,0.185 -0.294,0.179 -0.286,0.173 -0.278,0.167 -0.27,0.16 -0.261,0.154 -0.253,0.147 -0.245,0.141 -0.235,0.135 -0.227,0.129 -0.218,0.123 -0.209,0.116 -0.39,0.216 -0.353,0.191 -0.315,0.167 -0.276,0.145 -0.235,0.121 -0.195,0.098 -0.153,0.076 -0.111,0.054 -0.089,0.043 -0.097,-0.046 -0.114,-0.056 -0.157,-0.078 -0.198,-0.1 -0.238,-0.123 -0.279,-0.146 -0.317,-0.169 -0.356,-0.193 -0.392,-0.217 -0.21,-0.117 -0.219,-0.124 -0.228,-0.129 -0.237,-0.136 -0.245,-0.142 -0.254,-0.148 -0.262,-0.155 -0.27,-0.16 -0.279,-0.167 -0.287,-0.174 -0.294,-0.18 -0.303,-0.186 -0.31,-0.193 -0.318,-0.199 -0.326,-0.206 -0.333,-0.213 -0.34,-0.219 -0.348,-0.226 -0.354,-0.232 -0.362,-0.239 -0.369,-0.247 -0.375,-0.253 -0.382,-0.259 -0.388,-0.267 -0.395,-0.274 -0.402,-0.28 -0.407,-0.288 -0.414,-0.295 -0.419,-0.301 -0.426,-0.309 -0.431,-0.316 -0.437,-0.324 -0.443,-0.33 -0.448,-0.338 -0.453,-0.345 -0.459,-0.352 -0.464,-0.36 -0.469,-0.367 -0.473,-0.375 -0.479,-0.382 -0.483,-0.39 -0.488,-0.397 -0.492,-0.405 -0.497,-0.413 -0.501,-0.42 -0.505,-0.428 -0.509,-0.436 -0.513,-0.444 -0.516,-0.451 -0.521,-0.459 -0.262,-0.233 -0.262,-0.235 -0.263,-0.236 -0.265,-0.239 -0.265,-0.24 -0.266,-0.243 -0.266,-0.244 -0.268,-0.247 -0.268,-0.249 -0.269,-0.25 -0.27,-0.253 -0.271,-0.255 -0.271,-0.256 -0.272,-0.259 -0.273,-0.261 -0.273,-0.263 -0.274,-0.264 -0.275,-0.267 -0.276,-0.269 -0.276,-0.272 -0.277,-0.273 -0.277,-0.275 -0.278,-0.277 -0.278,-0.28 -0.279,-0.281 -0.28,-0.284 -0.28,-0.285 -0.281,-0.288 -0.281,-0.29 -0.282,-0.292 -0.282,-0.294 -0.283,-0.296 -0.283,-0.299 -0.284,-0.3 -0.284,-0.303 -0.284,-0.305 -0.285,-0.307 -0.285,-0.309 -0.286,-0.311 -0.286,-0.313 -0.286,-0.316 -0.287,-0.317 -0.287,-0.32 -0.287,-0.322 -0.288,-0.325 -0.288,-0.326 -0.288,-0.329 -0.288,-0.331 -0.289,-0.333 -0.289,-0.335 -0.289,-0.337 -0.289,-0.34 -0.29,-0.342 -0.29,-0.344 -0.289,-0.346 -0.29,-0.349 -0.291,-0.351 -0.29,-0.353 -0.29,-0.355 -0.291,-0.358 -0.29,-0.36 -0.291,-0.362 -0.29,-0.364 -0.291,-0.367 -0.291,-0.369 -0.29,-0.371 -0.291,-0.373 -0.291,-0.376 -0.29,-0.378 -0.291,-0.38 -0.29,-0.383 -0.291,-0.385 -0.29,-0.387 -0.291,-0.39 -0.29,-0.392 -0.29,-0.394 -0.29,-0.397 -0.289,-0.399 -0.29,-0.401 -0.289,-0.404 -0.29,-0.406 -0.289,-0.408 -0.288,-0.411 -0.289,-0.413 -0.288,-0.415 -0.288,-0.418 -0.288,-0.42 -0.287,-0.423 -0.287,-0.425 -0.287,-0.427 -0.287,-0.43 -0.286,-0.432 -0.286,-0.434 -0.285,-0.437 -0.285,-0.44 -0.285,-0.442 -0.284,-0.444 -0.283,-0.447 -0.284,-0.449 -0.283,-0.451 -0.282,-0.454 -0.282,-0.457 -0.281,-0.458 -0.281,-0.462 -0.281,-0.464 -0.279,-0.466 -0.28,-0.469 -0.278,-0.471 -0.279,-0.474 -0.277,-0.476 -0.277,-0.479 -0.276,-0.481 -0.276,-0.483 -0.275,-0.487 -0.274,-0.488 -0.274,-0.492 -0.352,-0.637 -0.349,-0.638 -0.346,-0.639 -0.343,-0.64 -0.341,-0.641 -0.337,-0.642 -0.335,-0.642 -0.332,-0.644 -0.329,-0.644 -0.326,-0.645 -0.323,-0.646 -0.321,-0.647 -0.318,-0.647 -0.315,-0.648 -0.313,-0.649 -0.309,-0.649 -0.307,-0.65 -0.304,-0.65 -0.302,-0.651 -0.299,-0.652 -0.296,-0.652 -0.294,-0.652 -0.291,-0.653 -0.288,-0.653 -0.286,-0.653 -0.283,-0.654 -0.28,-0.655 -0.278,-0.654 -0.275,-0.655 -0.273,-0.655 -0.27,-0.655 -0.268,-0.656 -0.265,-0.655 -0.263,-0.656 -0.26,-0.656 -0.257,-0.655 -0.256,-0.656 -0.252,-0.656 -0.25,-0.656 -0.248,-0.656 -0.246,-0.656 -0.242,-0.655 -0.241,-0.656 -0.238,-0.655 -0.236,-0.656 -0.233,-0.655 -0.231,-0.654 -0.229,-0.655 -0.226,-0.654 -0.224,-0.654 -0.222,-0.654 -0.219,-0.653 -0.218,-0.653 -0.214,-0.652 -0.213,-0.652 -0.21,-0.651 -0.208,-0.651 -0.206,-0.651 -0.204,-0.65 -0.201,-0.649 -0.2,-0.648 -0.197,-0.648 -0.195,-0.648 -0.192,-0.646 -0.191,-0.646 -0.188,-0.645 -0.187,-0.645 -0.184,-0.643 -0.182,-0.643 -0.18,-0.642 -0.178,-0.641 -0.176,-0.64 -0.174,-0.639 -0.172,-0.638 -0.17,-0.637 -0.167,-0.636 -0.166,-0.635 -0.164,-0.634 -0.162,-0.633 -0.16,-0.631 -0.158,-0.631 -0.156,-0.629 -0.154,-0.628 -0.152,-0.627 -0.15,-0.626 -0.148,-0.624 -0.147,-0.623 -0.144,-0.621 -0.143,-0.62 -0.141,-0.619 -0.139,-0.618 -0.137,-0.615 -0.136,-0.615 -0.133,-0.612 -0.132,-0.612 -0.13,-0.609 -0.129,-0.609 -0.126,-0.606 -0.125,-0.605 -0.123,-0.603 -0.121,-0.601 -0.12,-0.6 -0.118,-0.598 -0.116,-0.596 -0.115,-0.594 -0.113,-0.592 -0.111,-0.591 -0.11,-0.588 -0.108,-0.587 -0.106,-0.585 -0.105,-0.582 -0.104,-0.581 -0.101,-0.579 -0.101,-0.576 -0.098,-0.575 -0.097,-0.572 -0.096,-0.57 -0.094,-0.568 -0.092,-0.566 -0.091,-0.563 -0.09,-0.562 -0.088,-0.559 -0.087,-0.556 -0.085,-0.554 -0.084,-0.552 -0.082,-0.55 -0.081,-0.547 -0.08,-0.545 -0.078,-0.542 -0.077,-0.539 -0.075,-0.537 -0.074,-0.535 -0.073,-0.532 -0.072,-0.529 -0.07,-0.527 -0.069,-0.524 -0.067,-0.521 -0.067,-0.518 -0.065,-0.516 -0.064,-0.513 -0.124,-1.018 -0.119,-1.005 -0.114,-0.995 -0.11,-0.982 -0.105,-0.97 -0.1,-0.958 -0.097,-0.945 -0.092,-0.933 -0.087,-0.919 -0.084,-0.906 -0.08,-0.893 -0.076,-0.879 -0.072,-0.865 -0.068,-0.851 -0.065,-0.837 -0.061,-0.822 -0.057,-0.807 -0.055,-0.792 -0.051,-0.778 -0.048,-0.761 -0.045,-0.746 -0.042,-0.73 -0.04,-0.714 -0.036,-0.698 -0.034,-0.681 -0.031,-0.664 -0.029,-0.648 -0.026,-0.63 -0.024,-0.613 -0.022,-0.595 -0.02,-0.577 -0.018,-0.559 -0.016,-0.541 -0.014,-0.523 -0.013,-0.503 -0.011,-0.485 -0.009,-0.465 -0.008,-0.447 -0.007,-0.426 -0.005,-0.407 -0.008,-0.753 -0.004,-0.67 -0.001,-0.588 0.002,-0.501 0.003,-0.415 0.003,-0.325 0.004,-0.235 0.003,-0.189 0.653,0.008 0.649,0.005 0.647,0.003 h 0.644 l 0.642,-0.002 0.639,-0.005 0.636,-0.007 0.634,-0.009 0.631,-0.012 0.628,-0.015 0.626,-0.017 0.623,-0.019 0.621,-0.022 0.618,-0.024 0.615,-0.026 0.613,-0.029 0.61,-0.03 0.607,-0.034 0.605,-0.035 0.602,-0.038 0.6,-0.039 0.597,-0.042 0.594,-0.044 0.592,-0.047 0.589,-0.048 0.587,-0.05 0.583,-0.053 0.582,-0.055 0.578,-0.056 0.576,-0.059 0.574,-0.061 0.571,-0.062 0.568,-0.065 0.565,-0.066 0.563,-0.069 0.561,-0.07 0.557,-0.072 0.556,-0.075 0.552,-0.075 0.55,-0.078 0.547,-0.08 0.545,-0.081 0.542,-0.083 0.54,-0.085 0.536,-0.087 0.535,-0.088 0.531,-0.09 0.529,-0.091 0.527,-0.094 0.524,-0.094 0.521,-0.097 0.519,-0.098 0.516,-0.099 0.513,-0.102 0.511,-0.102 0.508,-0.104 0.506,-0.106 0.503,-0.107 0.501,-0.109 0.498,-0.109 0.495,-0.112 0.493,-0.113 0.49,-0.114 0.487,-0.115 0.485,-0.117 0.482,-0.118 0.48,-0.119 0.477,-0.121 0.475,-0.121 0.472,-0.123 0.469,-0.125 0.467,-0.125 0.464,-0.127 0.462,-0.127 0.459,-0.129 0.456,-0.13 0.454,-0.131 0.451,-0.132 0.449,-0.133 0.446,-0.134 0.444,-0.135 0.441,-0.136 0.438,-0.138 0.436,-0.138 0.433,-0.138 0.431,-0.14 0.428,-0.141 0.425,-0.141 0.423,-0.143 0.421,-0.143 0.417,-0.144 0.416,-0.145 0.412,-0.145 0.41,-0.147 0.408,-0.147 0.405,-0.147 0.402,-0.149 0.4,-0.149 0.397,-0.149 0.394,-0.151 0.393,-0.151 0.389,-0.151 0.387,-0.152 0.384,-0.153 0.382,-0.153 0.379,-0.153 0.377,-0.154 0.374,-0.155 0.372,-0.155 0.368,-0.155 0.367,-0.156 0.364,-0.156 0.361,-0.157 0.359,-0.156 0.356,-0.158 0.354,-0.157 0.351,-0.158 0.348,-0.158 0.346,-0.158 0.343,-0.159 0.341,-0.158 0.338,-0.159 0.336,-0.159 0.333,-0.159 0.331,-0.159 0.328,-0.16 0.325,-0.159 0.323,-0.16 0.321,-0.159 0.318,-0.16 0.315,-0.159 0.313,-0.16 0.31,-0.159 0.308,-0.16 0.305,-0.159 0.302,-0.159 0.3,-0.16 0.298,-0.159 0.295,-0.158 0.292,-0.159 0.29,-0.158 0.287,-0.159 0.285,-0.158 0.282,-0.157 0.28,-0.158 0.277,-0.157 0.275,-0.157 0.272,-0.156 0.269,-0.156 0.267,-0.156 0.265,-0.155 0.262,-0.155 0.259,-0.155 0.257,-0.154 0.254,-0.153 0.252,-0.153 0.496,-0.305 0.486,-0.302 0.476,-0.3 0.466,-0.297 0.455,-0.295 0.446,-0.291 0.435,-0.289 0.425,-0.285 0.416,-0.282 0.405,-0.279 0.395,-0.275 0.385,-0.271 0.375,-0.267 0.364,-0.263 0.355,-0.258 0.345,-0.254 0.335,-0.25 0.324,-0.244 0.315,-0.24 0.305,-0.234 0.294,-0.229 0.285,-0.224 0.274,-0.218 0.265,-0.213 0.255,-0.206 0.244,-0.201 0.235,-0.194 0.224,-0.187 0.215,-0.182 0.205,-0.174 0.194,-0.168 0.185,-0.16 0.175,-0.153 0.164,-0.146 0.155,-0.139 0.145,-0.131 0.26,-0.237 0.221,-0.206 0.18,-0.171 0.141,-0.136 0.102,-0.099 L 150,48.32 Z m -0.477,14.655 -0.424,0.302 -0.435,0.306 -0.446,0.31 -0.456,0.314 -0.467,0.317 -0.477,0.321 -0.488,0.323 -0.499,0.327 -0.51,0.329 -0.52,0.332 -0.531,0.335 -0.541,0.337 -0.545,0.334 -0.287,0.175 -0.283,0.17 -0.286,0.172 -0.288,0.171 -0.291,0.172 -0.293,0.173 -0.296,0.172 -0.299,0.173 -0.302,0.174 -0.304,0.174 -0.307,0.174 -0.31,0.174 -0.312,0.174 -0.315,0.175 -0.318,0.175 -0.32,0.175 -0.323,0.176 -0.326,0.175 -0.328,0.175 -0.331,0.176 -0.334,0.176 -0.337,0.176 -0.339,0.175 -0.342,0.176 -0.344,0.176 -0.348,0.176 -0.35,0.175 -0.352,0.176 -0.356,0.175 -0.358,0.176 -0.361,0.175 -0.363,0.175 -0.366,0.175 -0.369,0.175 -0.372,0.174 -0.374,0.174 -0.377,0.174 -0.379,0.174 -0.383,0.173 -0.385,0.174 -0.388,0.172 -0.39,0.172 -0.393,0.172 -0.396,0.172 -0.399,0.171 -0.401,0.171 -0.404,0.17 -0.407,0.169 -0.409,0.169 -0.412,0.169 -0.415,0.168 -0.417,0.167 -0.42,0.167 -0.423,0.166 -0.426,0.166 -0.428,0.165 -0.431,0.164 -0.434,0.163 -0.436,0.163 -0.44,0.162 -0.441,0.161 -0.445,0.16 -0.447,0.16 -0.45,0.159 -0.453,0.157 -0.455,0.157 -0.458,0.156 -0.461,0.155 -0.463,0.155 -0.466,0.153 -0.469,0.152 -0.472,0.151 -0.474,0.15 -0.477,0.149 -0.48,0.149 -0.482,0.146 -0.485,0.146 -0.488,0.145 -0.49,0.143 -0.493,0.143 -0.496,0.141 -0.499,0.14 -0.501,0.138 -0.504,0.138 -0.506,0.136 -0.51,0.135 -0.512,0.133 -0.514,0.132 -0.518,0.131 -0.52,0.129 -0.523,0.128 -0.525,0.127 -0.528,0.125 -0.531,0.123 -0.533,0.122 -0.537,0.121 -0.539,0.119 -0.541,0.117 -0.544,0.116 -0.547,0.114 -0.55,0.113 -0.552,0.111 -0.555,0.109 -0.558,0.108 -0.56,0.106 -0.563,0.104 -0.566,0.102 -0.569,0.101 -0.571,0.099 -0.573,0.097 -0.577,0.095 -0.579,0.093 -0.582,0.092 -0.584,0.089 -0.587,0.088 -0.59,0.086 -0.592,0.084 -0.595,0.081 -0.598,0.08 -0.601,0.078 -0.603,0.076 -0.605,0.073 -0.609,0.072 -0.611,0.069 -0.614,0.068 -0.616,0.065 -0.619,0.063 -0.622,0.061 -0.624,0.059 -0.627,0.056 -0.63,0.054 -0.632,0.052 -0.635,0.05 -0.637,0.047 -0.641,0.045 -0.642,0.043 -0.646,0.04 -0.648,0.038 -0.599,0.032 0.011,0.22 0.032,0.652 0.035,0.668 0.038,0.684 0.04,0.7 0.043,0.715 0.046,0.731 0.049,0.745 0.053,0.761 0.055,0.775 0.059,0.79 0.062,0.804 0.066,0.818 0.069,0.832 0.073,0.845 0.076,0.858 0.081,0.872 0.084,0.884 0.089,0.898 0.092,0.909 0.097,0.922 0.101,0.934 0.106,0.945 0.11,0.957 0.115,0.968 0.12,0.984 0.06,0.489 0.063,0.497 0.064,0.499 0.065,0.501 0.066,0.505 0.068,0.507 0.069,0.509 0.07,0.512 0.071,0.514 0.073,0.517 0.074,0.519 0.075,0.522 0.076,0.524 0.078,0.526 0.08,0.529 0.08,0.531 0.082,0.533 0.084,0.536 0.084,0.537 0.086,0.54 0.088,0.542 0.089,0.544 0.09,0.547 0.092,0.548 0.094,0.55 0.095,0.552 0.096,0.555 0.098,0.556 0.099,0.558 0.101,0.56 0.102,0.562 0.104,0.564 0.105,0.565 0.107,0.567 0.109,0.569 0.11,0.571 0.112,0.573 0.113,0.574 0.115,0.575 0.116,0.578 0.118,0.579 0.12,0.58 0.122,0.582 0.123,0.584 0.125,0.585 0.126,0.586 0.128,0.588 0.13,0.589 0.132,0.591 0.133,0.591 0.135,0.594 0.137,0.594 0.138,0.596 0.141,0.596 0.142,0.599 0.144,0.599 0.145,0.6 0.148,0.601 0.149,0.603 0.151,0.604 0.153,0.604 0.155,0.606 0.157,0.606 0.159,0.607 0.16,0.609 0.162,0.609 0.165,0.61 0.166,0.611 0.168,0.611 0.17,0.613 0.172,0.613 0.174,0.614 0.176,0.614 0.178,0.615 0.18,0.616 0.182,0.616 0.184,0.617 0.185,0.618 0.188,0.618 0.19,0.618 0.192,0.619 0.194,0.619 0.197,0.62 0.198,0.62 0.2,0.62 0.202,0.621 0.205,0.621 0.207,0.621 0.208,0.621 0.211,0.622 0.213,0.622 0.215,0.622 0.218,0.622 0.219,0.622 0.222,0.622 0.224,0.622 0.226,0.622 0.228,0.622 0.23,0.622 0.233,0.622 0.235,0.622 0.237,0.622 0.24,0.622 0.241,0.621 0.244,0.621 0.247,0.621 0.248,0.621 0.251,0.62 0.253,0.62 0.256,0.62 0.258,0.619 0.26,0.619 0.262,0.618 0.265,0.618 0.267,0.617 0.27,0.617 0.272,0.616 0.275,0.616 0.276,0.615 0.28,0.615 0.281,0.613 0.284,0.614 0.287,0.612 0.289,0.612 0.291,0.611 0.294,0.61 0.296,0.609 0.299,0.608 0.301,0.608 0.304,0.607 0.306,0.605 0.309,0.605 0.312,0.604 0.313,0.602 0.317,0.602 0.319,0.601 0.321,0.599 0.324,0.599 0.327,0.597 0.331,0.599 0.254,0.457 0.257,0.457 0.257,0.454 0.258,0.453 0.258,0.449 0.259,0.448 0.259,0.445 0.26,0.442 0.261,0.441 0.26,0.437 0.262,0.436 0.262,0.433 0.262,0.431 0.263,0.428 0.263,0.426 0.263,0.424 0.264,0.421 0.265,0.419 0.264,0.417 0.265,0.415 0.266,0.412 0.266,0.409 0.266,0.408 0.266,0.405 0.267,0.403 0.267,0.4 0.267,0.399 0.268,0.396 0.268,0.393 0.268,0.392 0.268,0.389 0.268,0.387 0.269,0.385 0.269,0.382 0.269,0.38 0.269,0.378 0.27,0.376 0.269,0.373 0.27,0.371 0.269,0.369 0.27,0.367 0.27,0.365 0.27,0.362 0.27,0.36 0.27,0.358 0.27,0.356 0.27,0.354 0.271,0.351 0.27,0.349 0.27,0.347 0.27,0.345 0.27,0.343 0.27,0.341 0.27,0.338 0.27,0.336 0.27,0.334 0.269,0.332 0.27,0.33 0.269,0.328 0.269,0.325 0.269,0.324 0.269,0.321 0.269,0.319 0.269,0.318 0.268,0.315 0.268,0.313 0.268,0.31 0.267,0.309 0.268,0.307 0.267,0.304 0.267,0.303 0.266,0.3 0.266,0.299 0.266,0.296 0.266,0.294 0.265,0.292 0.265,0.291 0.264,0.288 0.264,0.286 0.264,0.284 0.263,0.282 0.263,0.28 0.262,0.278 0.262,0.276 0.262,0.274 0.26,0.272 0.261,0.27 0.26,0.268 0.259,0.266 0.259,0.264 0.259,0.261 0.257,0.261 0.258,0.258 0.256,0.256 0.256,0.254 0.256,0.252 0.255,0.25 0.254,0.248 0.253,0.247 0.253,0.244 0.252,0.242 0.252,0.241 0.251,0.238 0.25,0.237 0.249,0.235 0.249,0.232 0.247,0.231 0.248,0.229 0.246,0.227 0.245,0.225 0.245,0.223 0.244,0.222 0.243,0.219 0.242,0.218 0.242,0.216 0.235,0.209 0.484,0.426 0.474,0.415 0.471,0.407 0.467,0.4 0.463,0.393 0.459,0.385 0.455,0.378 0.451,0.37 0.446,0.364 0.442,0.356 0.437,0.349 0.432,0.342 0.428,0.335 0.422,0.328 0.418,0.321 0.413,0.314 0.407,0.307 0.402,0.3 0.396,0.293 0.391,0.287 0.385,0.28 0.38,0.272 0.374,0.267 0.367,0.259 0.362,0.253 0.355,0.246 0.349,0.24 0.343,0.233 0.336,0.226 0.329,0.22 0.323,0.214 0.316,0.207 0.309,0.201 0.302,0.194 0.295,0.188 0.249,0.158 0.211,-0.134 0.294,-0.187 0.302,-0.194 0.309,-0.2 0.315,-0.207 0.322,-0.213 0.329,-0.219 0.336,-0.226 0.342,-0.233 0.349,-0.239 0.355,-0.246 0.362,-0.252 0.367,-0.259 0.374,-0.266 0.379,-0.273 0.385,-0.279 0.391,-0.286 0.396,-0.293 0.402,-0.3 0.408,-0.307 0.412,-0.313 0.418,-0.321 0.423,-0.328 0.427,-0.334 0.433,-0.342 0.437,-0.349 0.442,-0.356 0.447,-0.364 0.45,-0.37 0.455,-0.378 0.46,-0.385 0.463,-0.392 0.468,-0.4 0.471,-0.407 0.475,-0.415 0.484,-0.427 0.235,-0.208 0.242,-0.216 0.242,-0.218 0.243,-0.219 0.245,-0.222 0.244,-0.223 0.246,-0.225 0.247,-0.227 0.247,-0.229 0.248,-0.231 0.249,-0.233 0.25,-0.235 0.25,-0.236 0.251,-0.239 0.252,-0.24 0.252,-0.243 0.253,-0.244 0.254,-0.247 0.255,-0.248 0.255,-0.25 0.255,-0.252 0.257,-0.255 0.257,-0.256 0.257,-0.258 0.258,-0.26 0.259,-0.262 0.259,-0.264 0.26,-0.266 0.26,-0.268 0.261,-0.27 0.261,-0.272 0.262,-0.275 0.262,-0.276 0.263,-0.278 0.263,-0.28 0.263,-0.282 0.264,-0.284 0.265,-0.287 0.265,-0.288 0.265,-0.29 0.265,-0.293 0.266,-0.294 0.266,-0.297 0.267,-0.298 0.267,-0.301 0.267,-0.303 0.267,-0.304 0.268,-0.307 0.268,-0.309 0.268,-0.311 0.269,-0.314 0.268,-0.315 0.269,-0.317 0.269,-0.32 0.269,-0.321 0.27,-0.324 0.27,-0.326 0.269,-0.328 0.27,-0.33 0.27,-0.332 0.27,-0.335 0.271,-0.336 0.27,-0.339 0.27,-0.341 0.271,-0.343 0.27,-0.345 0.271,-0.348 0.27,-0.349 0.271,-0.352 0.27,-0.354 0.271,-0.356 0.27,-0.358 0.27,-0.361 0.271,-0.363 0.27,-0.365 0.27,-0.367 0.271,-0.369 0.27,-0.372 0.269,-0.374 0.27,-0.376 0.27,-0.378 0.269,-0.381 0.269,-0.383 0.27,-0.385 0.268,-0.387 0.269,-0.39 0.268,-0.391 0.269,-0.395 0.268,-0.396 0.267,-0.399 0.268,-0.401 0.267,-0.403 0.267,-0.406 0.266,-0.408 0.266,-0.41 0.266,-0.413 0.266,-0.415 0.265,-0.417 0.264,-0.42 0.265,-0.421 0.264,-0.425 0.263,-0.426 0.263,-0.429 0.263,-0.432 0.262,-0.433 0.262,-0.436 0.261,-0.439 0.261,-0.441 0.26,-0.443 0.26,-0.446 0.259,-0.448 0.259,-0.45 0.258,-0.453 0.257,-0.455 0.257,-0.458 0.255,-0.457 0.331,-0.599 0.327,-0.597 0.324,-0.599 0.321,-0.599 0.319,-0.601 0.317,-0.602 0.313,-0.602 0.312,-0.604 0.309,-0.605 0.306,-0.605 0.304,-0.607 0.301,-0.608 0.299,-0.608 0.296,-0.609 0.294,-0.61 0.291,-0.611 0.289,-0.612 0.287,-0.612 0.284,-0.614 0.281,-0.613 0.28,-0.615 0.276,-0.615 0.275,-0.616 0.272,-0.616 0.27,-0.617 0.267,-0.617 0.265,-0.618 0.262,-0.618 0.26,-0.619 0.258,-0.619 0.256,-0.62 0.253,-0.62 0.251,-0.62 0.248,-0.621 0.247,-0.621 0.244,-0.621 0.241,-0.621 0.24,-0.622 0.237,-0.622 0.235,-0.622 0.233,-0.622 0.23,-0.622 0.228,-0.622 0.226,-0.622 0.224,-0.622 0.222,-0.622 0.219,-0.622 0.218,-0.622 0.215,-0.622 0.213,-0.622 0.211,-0.622 0.208,-0.621 0.207,-0.621 0.205,-0.621 0.202,-0.621 0.2,-0.62 0.198,-0.62 0.197,-0.62 0.194,-0.619 0.192,-0.619 0.19,-0.618 0.187,-0.618 0.186,-0.618 0.184,-0.617 0.182,-0.616 0.18,-0.616 0.178,-0.615 0.176,-0.614 0.174,-0.614 0.172,-0.613 0.17,-0.613 0.168,-0.611 0.166,-0.611 0.165,-0.61 0.162,-0.609 0.16,-0.609 0.159,-0.607 0.157,-0.606 0.155,-0.606 0.153,-0.604 0.151,-0.604 0.149,-0.603 0.148,-0.601 0.145,-0.6 0.144,-0.599 0.142,-0.599 0.141,-0.596 0.138,-0.596 0.137,-0.594 0.135,-0.594 0.133,-0.591 0.132,-0.591 0.13,-0.589 0.128,-0.588 0.126,-0.586 0.125,-0.585 0.123,-0.584 0.122,-0.582 0.12,-0.58 0.118,-0.579 0.116,-0.578 0.115,-0.575 0.113,-0.575 0.112,-0.572 0.11,-0.571 0.109,-0.569 0.107,-0.567 0.105,-0.565 0.104,-0.564 0.102,-0.562 0.101,-0.56 0.099,-0.558 0.098,-0.556 0.096,-0.555 0.095,-0.552 0.094,-0.55 0.092,-0.549 0.09,-0.546 0.089,-0.544 0.088,-0.542 0.086,-0.539 0.084,-0.538 0.084,-0.536 0.082,-0.533 0.08,-0.531 0.08,-0.529 0.078,-0.526 0.076,-0.524 0.075,-0.522 0.074,-0.519 0.073,-0.517 0.071,-0.514 0.07,-0.512 0.069,-0.51 0.068,-0.506 0.066,-0.504 0.065,-0.502 0.064,-0.499 0.063,-0.497 0.061,-0.489 0.119,-0.984 0.115,-0.968 0.11,-0.957 0.106,-0.946 0.101,-0.933 0.097,-0.922 0.092,-0.909 0.089,-0.898 0.084,-0.884 0.081,-0.872 0.076,-0.858 0.073,-0.845 0.069,-0.832 0.066,-0.818 0.062,-0.804 0.059,-0.79 0.055,-0.775 0.053,-0.761 0.049,-0.745 0.046,-0.731 0.043,-0.715 0.04,-0.7 0.038,-0.684 0.035,-0.668 0.032,-0.651 0.011,-0.221 -0.599,-0.032 -0.648,-0.038 -0.646,-0.04 -0.642,-0.043 -0.641,-0.045 -0.637,-0.047 -0.635,-0.05 -0.632,-0.052 -0.63,-0.054 -0.627,-0.056 -0.624,-0.059 -0.622,-0.061 -0.619,-0.063 -0.616,-0.065 -0.614,-0.068 -0.611,-0.069 -0.609,-0.072 -0.605,-0.073 -0.603,-0.076 -0.601,-0.078 -0.598,-0.08 -0.595,-0.081 -0.592,-0.084 -0.59,-0.086 -0.587,-0.088 -0.584,-0.089 -0.582,-0.092 -0.579,-0.093 -0.577,-0.095 -0.573,-0.097 -0.571,-0.099 -0.569,-0.101 -0.566,-0.102 -0.563,-0.104 -0.56,-0.106 -0.558,-0.108 -0.555,-0.109 -0.552,-0.111 -0.55,-0.113 -0.547,-0.114 -0.544,-0.116 -0.541,-0.117 -0.539,-0.119 -0.537,-0.121 -0.533,-0.122 -0.531,-0.123 -0.528,-0.125 -0.525,-0.127 -0.523,-0.128 -0.52,-0.129 -0.518,-0.131 -0.514,-0.132 -0.512,-0.133 -0.51,-0.135 -0.506,-0.136 -0.504,-0.138 -0.501,-0.138 -0.499,-0.14 -0.496,-0.141 -0.493,-0.143 -0.49,-0.143 -0.488,-0.145 -0.485,-0.146 -0.482,-0.146 -0.48,-0.149 -0.477,-0.149 -0.474,-0.15 -0.472,-0.151 -0.469,-0.152 L 182.382,79 181.919,78.845 181.458,78.69 181,78.534 l -0.455,-0.157 -0.453,-0.157 -0.45,-0.159 -0.447,-0.16 -0.445,-0.16 -0.441,-0.161 -0.44,-0.162 -0.436,-0.163 -0.434,-0.163 -0.431,-0.164 -0.428,-0.165 -0.426,-0.166 -0.422,-0.166 -0.421,-0.167 -0.417,-0.167 -0.415,-0.168 -0.412,-0.169 -0.409,-0.169 -0.407,-0.169 -0.404,-0.17 -0.401,-0.171 -0.399,-0.171 -0.396,-0.172 -0.393,-0.172 -0.39,-0.172 -0.388,-0.172 -0.385,-0.174 -0.383,-0.173 -0.379,-0.174 -0.377,-0.174 -0.374,-0.174 -0.372,-0.174 -0.369,-0.175 -0.366,-0.175 -0.363,-0.175 -0.361,-0.175 -0.358,-0.176 -0.356,-0.175 -0.352,-0.176 -0.35,-0.175 -0.348,-0.176 -0.344,-0.176 -0.342,-0.176 -0.339,-0.175 -0.337,-0.176 -0.334,-0.176 -0.331,-0.176 -0.328,-0.175 -0.326,-0.175 -0.323,-0.176 -0.32,-0.175 -0.318,-0.175 -0.315,-0.175 -0.312,-0.174 -0.31,-0.174 -0.307,-0.174 -0.304,-0.174 -0.302,-0.174 -0.299,-0.173 -0.296,-0.172 -0.293,-0.173 -0.291,-0.172 -0.288,-0.171 -0.286,-0.172 -0.283,-0.17 -0.287,-0.175 -0.545,-0.334 -0.541,-0.337 -0.531,-0.335 -0.52,-0.332 -0.51,-0.329 -0.499,-0.327 -0.488,-0.323 -0.477,-0.321 -0.467,-0.317 -0.456,-0.314 -0.446,-0.31 -0.435,-0.306 L 150.393,63.06 150,62.777 Z"
       style="display:inline;fill:#ffffff"
       id="path13478"
       inkscape:connector-curvature="0" /></g></g></g>
</svg>