<?xml version="1.0" encoding="UTF-8" standalone="no"?>
<!-- Created with Inkscape (http://www.inkscape.org/) -->

<svg
   xmlns:dc="http://purl.org/dc/elements/1.1/"
   xmlns:cc="http://creativecommons.org/ns#"
   xmlns:rdf="http://www.w3.org/1999/02/22-rdf-syntax-ns#"
   xmlns:svg="http://www.w3.org/2000/svg"
   xmlns="http://www.w3.org/2000/svg"
   xmlns:sodipodi="http://sodipodi.sourceforge.net/DTD/sodipodi-0.dtd"
   xmlns:inkscape="http://www.inkscape.org/namespaces/inkscape"
   width="44.408257mm"
   height="52.733906mm"
   viewBox="0 0 44.408257 52.733906"
   version="1.1"
   id="svg6633"
   inkscape:version="0.92.4 (5da689c313, 2019-01-14)"
   sodipodi:docname="waf.svg">
  <defs
     id="defs6627">
    <marker
       inkscape:stockid="TriangleOutS"
       orient="auto"
       refY="0"
       refX="0"
       id="TriangleOutS-2"
       style="overflow:visible"
       inkscape:isstock="true">
      <path
         inkscape:connector-curvature="0"
         id="path27473-6"
         d="M 5.77,0 -2.88,5 V -5 Z"
         style="fill:#fffffa;fill-opacity:1;fill-rule:evenodd;stroke:#fffffa;stroke-width:1.00000003pt;stroke-opacity:1"
         transform="scale(0.2)" />
    </marker>
    <marker
       inkscape:stockid="TriangleOutS"
       orient="auto"
       refY="0"
       refX="0"
       id="TriangleOutS"
       style="overflow:visible"
       inkscape:isstock="true">
      <path
         id="path27473"
         d="M 5.77,0 -2.88,5 V -5 Z"
         style="fill:#fffffa;fill-opacity:1;fill-rule:evenodd;stroke:#fffffa;stroke-width:1.00000003pt;stroke-opacity:1"
         transform="scale(0.2)"
         inkscape:connector-curvature="0" />
    </marker>
  </defs>
  <sodipodi:namedview
     id="base"
     pagecolor="#ffffff"
     bordercolor="#666666"
     borderopacity="1.0"
     inkscape:pageopacity="0.0"
     inkscape:pageshadow="2"
     inkscape:zoom="4.3249373"
     inkscape:cx="83.921113"
     inkscape:cy="99.654624"
     inkscape:document-units="mm"
     inkscape:current-layer="layer1"
     showgrid="false"
     fit-margin-top="0"
     fit-margin-left="0"
     fit-margin-right="0"
     fit-margin-bottom="0"
     inkscape:window-width="1916"
     inkscape:window-height="1029"
     inkscape:window-x="0"
     inkscape:window-y="49"
     inkscape:window-maximized="0" />
  <metadata
     id="metadata6630">
    <rdf:RDF>
      <cc:Work
         rdf:about="">
        <dc:format>image/svg+xml</dc:format>
        <dc:type
           rdf:resource="http://purl.org/dc/dcmitype/StillImage" />
        <dc:title></dc:title>
      </cc:Work>
    </rdf:RDF>
  </metadata>
  <g
     inkscape:label="Layer 1"
     inkscape:groupmode="layer"
     id="layer1"
     transform="translate(-50.641567,-56.923077)">
    <g
       style="clip-rule:evenodd;display:inline;fill:#000000;fill-opacity:1;fill-rule:evenodd;stroke:#000000;stroke-opacity:1;image-rendering:optimizeQuality;shape-rendering:geometricPrecision;text-rendering:geometricPrecision"
       id="g27256"
       transform="matrix(0.20108333,0,0,0.20108333,-273.99961,-184.8385)">
      <g
         id="g27286"
         transform="matrix(0.33210274,0,0,0.33210274,1463.0367,1040.7068)"
         style="display:inline">
        <title
           id="title27279">Layer 1</title>
        <path
           d="m 788.67261,487.0445 h 2.90284 l 12.50339,6.28689 q 12.50339,6.2869 16.52249,8.23802 4.01867,1.95107 27.35127,12.6821 23.3321,10.73132 24.11375,10.83933 0.78116,0.1085 12.39153,5.0949 11.61084,4.98594 17.86008,7.37088 6.25421,2.38447 18.0873,6.50341 11.83314,4.11893 14.95778,5.20292 3.12947,1.08398 7.81638,2.60145 4.68702,1.51796 12.05496,3.68544 7.37285,2.16796 18.75755,5.2034 11.38465,3.03496 22.10401,5.41943 10.71926,2.38495 13.84386,3.03543 3.1246,0.65001 19.8714,3.68544 16.7467,3.03496 20.9901,3.68544 4.2385,0.65001 20.7634,3.25146 16.5201,2.60145 16.7467,2.60145 0.2219,0 16.0717,3.03545 15.8547,3.03496 15.9656,3.14345 l 0.1109,0.10802 -0.6703,32.30195 q -0.6702,32.30149 -3.3464,83.46368 -2.6811,51.16217 -4.2434,71.54034 -1.5623,20.37816 -3.5731,34.90294 -2.0107,14.52477 -4.6869,27.53205 -2.681,13.00731 -5.8057,26.23159 -3.1246,13.22381 -5.5838,23.19613 -2.4544,9.97235 -5.8057,21.46217 -3.3465,11.48981 -4.0167,13.87476 -0.6703,2.38447 -2.0108,6.06991 -1.3405,3.68545 -3.1247,9.10535 -1.7841,5.42087 -5.5838,15.60971 -3.7949,10.18885 -6.2493,16.25972 -2.4543,6.07087 -6.0274,14.52381 -3.5731,8.45293 -9.157,20.37768 -5.579,11.9248 -6.6977,13.8728 -1.1139,1.9529 -8.1492,14.2008 -7.0352,12.2478 -8.4866,14.5238 -1.4515,2.276 -6.9196,11.4908 -5.4681,9.2148 -7.1462,11.7077 -1.6732,2.493 -5.1354,7.802 -3.4573,5.3138 -5.579,8.2408 -2.1217,2.9269 -4.91364,6.9388 -2.79188,4.0071 -5.35718,7.368 -2.57011,3.3609 -4.02153,5.6368 -1.45141,2.276 -4.23857,5.854 -2.79188,3.5779 -5.36199,7.1558 -2.5653,3.5731 -5.57903,7.368 -3.01374,3.7948 -5.13541,6.5048 -2.12167,2.7099 -9.04604,10.2998 -6.91954,7.5849 -16.29829,17.3398 -9.37876,9.7549 -16.52011,16.6937 -7.14617,6.9388 -9.48966,8.7808 -2.3483,1.842 -10.94107,9.3209 -8.59759,7.4789 -10.49263,9.104 -1.89986,1.6249 -9.37971,8.0236 -7.47987,6.394 -9.82432,8.236 -2.34394,1.842 -5.35818,4.335 -3.01421,2.4929 -8.3729,6.8327 -5.35865,4.335 -8.14963,6.3939 -2.79094,2.0591 -5.35865,3.6841 -2.56771,1.625 -9.37779,5.6369 -6.8096,4.0119 -8.93079,5.4199 -2.12118,1.408 -4.80076,2.9269 -2.6791,1.519 -5.58144,3.467 -2.90285,1.9529 -4.24237,2.8209 -1.33955,0.868 -5.80519,3.033 -4.46566,2.1699 -10.71733,4.9859 -6.25172,2.8209 -8.70753,3.6889 l -2.45631,0.8631 -2.67911,-0.651 q -2.67958,-0.6461 -5.80518,-2.165 -3.12608,-1.519 -10.49408,-5.203 -7.36797,-3.6839 -8.48426,-4.5519 -1.11679,-0.868 -5.69381,-3.7949 -4.57703,-2.927 -6.92148,-4.335 -2.34445,-1.408 -9.15452,-5.4199 -6.80961,-4.0119 -9.37732,-5.6369 -2.56768,-1.625 -5.35865,-3.684 -2.79095,-2.0589 -6.36358,-4.8799 -3.57211,-2.8159 -9.48916,-7.6958 -5.91658,-4.8798 -10.27034,-8.4529 -4.35376,-3.5779 -12.72665,-10.8398 -8.3729,-7.2619 -10.71735,-9.1088 -2.34444,-1.842 -10.27081,-8.6699 -7.92589,-6.8279 -8.81939,-7.6959 -0.89304,-0.8679 -7.92638,-7.6959 -7.03285,-6.8279 -9.82383,-9.7548 -2.79096,-2.9269 -12.28061,-13.0097 -9.48917,-10.0779 -11.38664,-12.3539 -1.89791,-2.276 -5.58192,-6.7219 -3.68447,-4.4458 -5.80518,-7.1558 -2.12118,-2.7099 -4.24238,-5.6369 -2.12118,-2.9221 -4.46563,-6.0661 -2.34445,-3.1439 -4.24238,-5.6368 -1.89745,-2.493 -3.23747,-4.4459 -1.33956,-1.9529 -3.684,-5.092 -2.34445,-3.1439 -4.01863,-5.6369 -1.67469,-2.493 -4.46565,-6.5048 -2.79096,-4.0119 -4.24238,-6.2879 -1.4514,-2.276 -4.68889,-7.1558 -3.23747,-4.8751 -4.2419,-6.7171 -1.00489,-1.8419 -5.58192,-9.3208 -4.57751,-7.4838 -6.02844,-9.7597 -1.45141,-2.2761 -7.25659,-12.4648 -5.80518,-10.1889 -8.70754,-15.3918 -2.90284,-5.2029 -5.13541,-9.7549 -2.23306,-4.5519 -6.2517,-13.65583 -4.01912,-9.10877 -4.01912,-9.32571 0,-0.21699 -4.01912,-9.9719 -4.01864,-9.75482 -6.25169,-15.39171 -2.23259,-5.6369 -6.2517,-17.12286 -4.01913,-11.49222 -8.03777,-24.49953 -4.01911,-13.00728 -8.93127,-31.65099 -4.91215,-18.64417 -6.92147,-27.74952 -2.00932,-9.10487 -5.58192,-26.44808 -3.57212,-17.34274 -4.24238,-22.76217 -0.66977,-5.4199 -2.90235,-33.16895 -2.23258,-27.74905 -2.90283,-41.84034 -0.66977,-14.09128 -1.56281,-29.91653 -0.89303,-15.82574 -2.45583,-51.81267 -1.56329,-35.9874 -1.56329,-50.94566 V 589.1523 l 1.45142,-0.7585 q 1.45142,-0.75898 7.92637,-1.84296 6.47495,-1.0835 17.86206,-2.81796 11.38711,-1.73447 34.60784,-5.63642 23.22073,-3.90243 33.2683,-5.63689 10.04708,-1.73399 26.56958,-5.41943 16.52252,-3.68544 28.57941,-6.93739 12.05688,-3.25193 20.7644,-6.07038 8.70802,-2.81797 13.62016,-4.33593 4.91217,-1.51748 9.37779,-3.03495 4.46516,-1.51748 17.86208,-6.50341 13.39642,-4.9864 25.11818,-10.08083 11.72174,-5.09442 12.5034,-5.20292 0.78162,-0.10849 11.27523,-4.87791 10.49407,-4.76942 18.97834,-8.67138 8.48476,-3.90242 16.74578,-7.80456 8.2615,-3.90219 20.54163,-10.18909 l 12.28016,-6.28689 z"
           id="path2"
           inkscape:connector-curvature="0"
           style="display:inline;fill:#4d4d4d;fill-rule:evenodd;stroke:#4d4d4d;stroke-width:0.96439612px;stroke-opacity:1" />
        <path
           id="svg_4"
           d="m 790.37934,517.87854 h 2.68932 l 11.58467,5.8245 q 11.58473,5.82448 15.30838,7.63208 3.7237,1.80759 25.34159,11.74941 21.61789,9.94181 22.34195,10.04225 0.72404,0.10043 11.48128,4.71985 10.75722,4.61943 16.54959,6.8287 5.79235,2.20928 16.75662,6.02533 10.96417,3.81607 13.8604,4.82028 2.89622,1.00425 7.24059,2.41014 4.34431,1.40591 11.17118,3.41437 6.82676,2.00842 17.37726,4.82026 10.55039,2.81181 20.48011,5.02114 9.92976,2.20925 12.82593,2.81181 2.89618,0.6025 18.41139,3.41432 15.5153,2.81189 19.4458,3.41442 3.9305,0.60254 19.2389,3.01272 15.3084,2.41014 15.5153,2.41014 0.2068,0 14.8946,2.81187 14.6877,2.81185 14.7912,2.91224 l 0.1035,0.10042 -0.6206,29.92604 q -0.6207,29.92585 -3.1031,77.32521 -2.4825,47.39933 -3.9305,66.27875 -1.4482,18.87942 -3.31,32.33599 -1.8618,13.4566 -4.3442,25.50729 -2.4825,12.0506 -5.3787,24.30191 -2.8961,12.25132 -5.1717,21.4901 -2.2756,9.23888 -5.3786,19.88361 -3.1031,10.64479 -3.7236,12.85406 -0.6207,2.2093 -1.8619,5.62365 -1.2412,3.41439 -2.8962,8.43553 -1.6549,5.0211 -5.1718,14.46066 -3.5167,9.43975 -5.7923,15.06339 -2.2756,5.62363 -5.5855,13.4566 -3.3099,7.83297 -8.4816,18.87931 -5.1717,11.04661 -6.2062,12.85411 -1.0343,1.8076 -7.5507,13.1553 -6.5164,11.3478 -7.861,13.4566 -1.3447,2.1089 -6.413,10.6448 -5.06831,8.5359 -6.61988,10.8456 -1.55147,2.3097 -4.75799,7.2304 -3.20652,4.9207 -5.17172,7.6321 -1.96529,2.7114 -4.55118,6.4271 -2.58588,3.7156 -4.9649,6.8286 -2.37897,3.1132 -3.72368,5.222 -1.34461,2.1089 -3.93044,5.4228 -2.58594,3.3139 -4.96491,6.6279 -2.37902,3.3139 -5.17172,6.8288 -2.79279,3.5148 -4.75809,6.0253 -1.96524,2.5104 -8.37833,9.5401 -6.41309,7.0295 -15.10177,16.0676 -8.68863,9.0379 -15.30863,15.465 -6.61981,6.427 -8.79197,8.1342 -2.1722,1.7072 -10.13676,8.6363 -7.96444,6.9291 -9.72288,8.4355 -1.75839,1.5064 -8.68854,7.4313 -6.93013,5.9248 -9.10229,7.6321 -2.17212,1.7071 -4.96487,4.0168 -2.79273,2.3097 -7.7576,6.3266 -4.9649,4.017 -7.55077,5.925 -2.58587,1.908 -4.96487,3.4144 -2.37903,1.5062 -8.68854,5.222 -6.30954,3.7155 -8.2748,5.0211 -1.96526,1.3054 -4.44771,2.7113 -2.48244,1.4059 -5.17174,3.2136 -2.68932,1.8075 -3.93051,2.6109 -1.24125,0.8034 -5.37864,2.8118 -4.13738,2.0085 -9.92973,4.6195 -5.79239,2.6109 -8.06793,3.4143 l -2.27558,0.8034 -2.48242,-0.6025 q -2.48245,-0.6025 -5.37864,-2.0085 -2.89619,-1.4058 -9.7229,-4.8202 -6.8267,-3.4144 -7.86103,-4.2178 -1.03435,-0.8034 -5.27522,-3.5147 -4.24083,-2.7115 -6.41296,-4.017 -2.17212,-1.3054 -8.48167,-5.0211 -6.30951,-3.7157 -8.68854,-5.222 -2.37897,-1.5063 -4.96484,-3.4143 -2.5859,-1.908 -5.8958,-4.519 -3.30993,-2.611 -8.79199,-7.13 -5.48203,-4.519 -9.51597,-7.8329 -4.03393,-3.3139 -11.79148,-10.0422 -7.75758,-6.7284 -9.92968,-8.4356 -2.1721,-1.7071 -9.51594,-8.0337 -7.34387,-6.3266 -8.17135,-7.13 -0.82748,-0.8035 -7.34383,-7.1301 -6.51639,-6.3264 -9.10226,-9.0379 -2.58587,-2.7114 -11.37786,-12.0507 -8.79196,-9.3394 -10.55038,-11.4482 -1.75836,-2.1088 -5.17172,-6.2261 -3.41335,-4.1173 -5.37861,-6.6279 -1.96526,-2.5106 -3.93053,-5.222 -1.96529,-2.7113 -4.13742,-5.6237 -2.17212,-2.9121 -3.93051,-5.2219 -1.75841,-2.3096 -2.99961,-4.1172 -1.24122,-1.8077 -3.41338,-4.7199 -2.17213,-2.9123 -3.72365,-5.222 -1.55151,-2.3097 -4.13738,-6.0253 -2.58588,-3.7157 -3.93055,-5.8245 -1.34464,-2.1089 -4.34425,-6.6279 -2.99963,-4.519 -3.93053,-6.2262 -0.93092,-1.7072 -5.17175,-8.6362 -4.24085,-6.9293 -5.58549,-9.0381 -1.34465,-2.1088 -6.72328,-11.5485 -5.37862,-9.4399 -8.06793,-14.26 -2.68932,-4.8204 -4.758,-9.0381 -2.06869,-4.21771 -5.79236,-12.65318 -3.72366,-8.43543 -3.72366,-8.63632 0,-0.20088 -3.72366,-9.23881 -3.72364,-9.03808 -5.79234,-14.26005 -2.06869,-5.22191 -5.79235,-15.86658 -3.72366,-10.64483 -7.44733,-22.69551 -3.72366,-12.05063 -8.27479,-29.32332 -4.55114,-17.2724 -6.41297,-25.70777 -1.86183,-8.43529 -5.17175,-24.50278 -3.30992,-16.06758 -3.93053,-21.08872 -0.62061,-5.02108 -2.68931,-30.72923 -2.06869,-25.70813 -2.68931,-38.76303 -0.62061,-13.05493 -1.44809,-27.71659 -0.82748,-14.66163 -2.27557,-48.00191 -1.44809,-33.34015 -1.44809,-47.19849 v -13.85843 l 1.34466,-0.70292 q 1.34465,-0.703 7.34388,-1.7072 5.99923,-1.00423 16.5496,-2.61102 10.55036,-1.60677 32.06482,-5.22202 21.51447,-3.61524 30.82362,-5.22198 9.30914,-1.60676 24.61753,-5.02114 15.30838,-3.41436 26.47935,-6.42702 11.17098,-3.01266 19.23888,-5.62363 8.06793,-2.61101 12.61908,-4.01691 4.55113,-1.40591 8.68852,-2.81184 4.13735,-1.40592 16.54951,-6.02533 12.41209,-4.61941 23.27267,-9.33928 10.86059,-4.71985 11.58465,-4.82027 0.72403,-0.10044 10.4469,-4.51899 9.72289,-4.41858 17.58398,-8.03378 7.86103,-3.61522 15.51522,-7.23043 7.65419,-3.6152 19.03205,-9.43968 l 11.37783,-5.8245 z"
           inkscape:connector-curvature="0"
           style="display:inline;fill:#ffffff;fill-rule:evenodd;stroke:#4d4d4d;stroke-width:0.96735078;stroke-miterlimit:4;stroke-dasharray:none" />
        <path
           style="display:inline;fill:#4d4d4d;fill-rule:evenodd;stroke:#4d4d4d;stroke-width:0.91617632px;stroke-opacity:1"
           inkscape:connector-curvature="0"
           d="m 789.46199,556.50535 h 2.36946 l 10.20674,5.20871 q 10.20681,5.20865 13.48757,6.82515 3.2808,1.61649 22.32738,10.50716 19.04668,8.89066 19.68459,8.9805 0.63793,0.0898 10.1157,4.22082 9.47773,4.13104 14.58111,6.10671 5.1034,1.97573 14.76343,5.38827 9.66011,3.41262 12.21185,4.31065 2.55168,0.89812 6.37934,2.15537 3.82759,1.25725 9.84247,3.05334 6.01475,1.79606 15.31036,4.31066 9.29549,2.5145 18.04414,4.49024 8.74871,1.97566 11.30039,2.5145 2.55174,0.53881 16.2215,3.05334 13.66984,2.51462 17.13288,3.05341 3.463,0.53883 16.9506,2.69423 13.4875,2.15531 13.6698,2.15531 0.1823,0 13.123,2.51456 12.9408,2.51457 13.0319,2.60434 l 0.091,0.0898 -0.5468,26.76204 q -0.5468,26.76183 -2.734,69.14972 -2.1872,42.38789 -3.4629,59.27123 -1.276,16.88331 -2.9164,28.9172 -1.6403,12.03382 -3.8275,22.81041 -2.1872,10.77654 -4.7389,21.73255 -2.5517,10.95597 -4.5566,19.21795 -2.0049,8.26208 -4.7389,17.78135 -2.7339,9.51935 -3.2807,11.49504 -0.5468,1.97571 -1.6404,5.0291 -1.0936,3.05335 -2.5517,7.54367 -1.4581,4.49015 -4.5565,12.93177 -3.0986,8.44175 -5.1034,13.47082 -2.0051,5.02907 -4.9212,12.03389 -2.9162,7.00475 -7.4728,16.8832 -4.5566,9.87871 -5.46793,11.49504 -0.91134,1.61652 -6.65266,11.7645 -5.74136,10.1479 -6.92607,12.0337 -1.18475,1.8861 -5.65015,9.5195 -4.46553,7.6334 -5.83251,9.6989 -1.36699,2.0654 -4.19211,6.4659 -2.82507,4.4005 -4.5566,6.8252 -1.73152,2.4247 -4.00978,5.7475 -2.2783,3.3227 -4.37437,6.1067 -2.09604,2.784 -3.28079,4.6699 -1.18466,1.8859 -3.46291,4.8495 -2.2784,2.9635 -4.37438,5.927 -2.09607,2.9637 -4.55665,6.1069 -2.46058,3.1431 -4.1921,5.3882 -1.73153,2.2451 -7.38182,8.5314 -5.65029,6.2864 -13.30553,14.369 -7.65521,8.0823 -13.48777,13.8299 -5.83238,5.7474 -7.74618,7.2741 -1.91385,1.5267 -8.93098,7.7231 -7.01712,6.1966 -8.56641,7.5438 -1.5493,1.347 -7.65512,6.6455 -6.10587,5.2985 -8.01967,6.8252 -1.91377,1.5267 -4.37432,3.5922 -2.46057,2.0654 -6.83491,5.6577 -4.37438,3.5921 -6.65268,5.2985 -2.27831,1.7062 -4.37435,3.0533 -2.09607,1.3471 -7.65511,4.6699 -5.55907,3.3228 -7.29058,4.4903 -1.7315,1.1674 -3.91868,2.4246 -2.18717,1.2573 -4.55659,2.8738 -2.36945,1.6165 -3.46301,2.3348 -1.09363,0.7186 -4.7389,2.5147 -3.64528,1.7961 -8.74867,4.131 -5.10342,2.3349 -7.10831,3.0534 l -2.00491,0.7185 -2.18716,-0.539 q -2.18716,-0.5387 -4.73888,-1.7961 -2.55172,-1.2572 -8.56642,-4.3106 -6.01473,-3.0533 -6.92604,-3.7719 -0.91131,-0.7183 -4.64776,-3.143 -3.73642,-2.4248 -5.65019,-3.5923 -1.91378,-1.1674 -7.47285,-4.4901 -5.55904,-3.323 -7.65511,-4.67 -2.09601,-1.347 -4.37429,-3.0533 -2.27833,-1.7063 -5.19456,-4.0413 -2.91624,-2.3349 -7.74624,-6.3761 -4.83,-4.0412 -8.38412,-7.0047 -3.55413,-2.9636 -10.38896,-8.9804 -6.83489,-6.0172 -8.74863,-7.5438 -1.91374,-1.5267 -8.38408,-7.1843 -6.47037,-5.6577 -7.19945,-6.3762 -0.72904,-0.7185 -6.47035,-6.3762 -5.74134,-5.6576 -8.01966,-8.0824 -2.2783,-2.4247 -10.02456,-10.7765 -7.74622,-8.352 -9.29546,-10.2378 -1.54924,-1.8858 -4.55661,-5.568 -3.00735,-3.6819 -4.73886,-5.927 -1.7315,-2.2451 -3.46301,-4.6699 -1.73155,-2.4247 -3.64532,-5.0291 -1.91374,-2.6043 -3.46301,-4.6698 -1.54926,-2.0655 -2.64284,-3.6819 -1.09358,-1.6166 -3.00735,-4.221 -1.91377,-2.6042 -3.28076,-4.6698 -1.36692,-2.0655 -3.64525,-5.3882 -2.27828,-3.3229 -3.46298,-5.2087 -1.18469,-1.8859 -3.82754,-5.9271 -2.64284,-4.0412 -3.463,-5.568 -0.82022,-1.5267 -4.55661,-7.7231 -3.73646,-6.1967 -4.92115,-8.0826 -1.1847,-1.8858 -5.92361,-10.3275 -4.73885,-8.4418 -7.10831,-12.75227 -2.36945,-4.31071 -4.19208,-8.08247 -1.82262,-3.77181 -5.10339,-11.31538 -3.28076,-7.5436 -3.28076,-7.72327 0,-0.17962 -3.28076,-8.26194 -3.28071,-8.08255 -5.10339,-12.75239 -1.82263,-4.66985 -5.10339,-14.18911 -3.28076,-9.51939 -6.56153,-20.29601 -3.28077,-10.77651 -7.29055,-26.22297 -4.00983,-15.44625 -5.65022,-22.98977 -1.64038,-7.54344 -4.55662,-21.91218 -2.91616,-14.36877 -3.46299,-18.85907 -0.54678,-4.49017 -2.36946,-27.48022 -1.82262,-22.99011 -2.3694,-34.66476 -0.54683,-11.67465 -1.27584,-24.78613 -0.72908,-13.1115 -2.00492,-42.92668 -1.27586,-29.81518 -1.27586,-42.20832 v -12.39322 l 1.18471,-0.62858 q 1.18471,-0.62864 6.47038,-1.52673 5.28568,-0.89803 14.58114,-2.33492 9.29547,-1.43692 28.251,-4.66994 18.95546,-3.23301 27.15733,-4.66984 8.20191,-1.4369 21.68942,-4.49026 13.48755,-3.05338 23.32981,-5.74752 9.84227,-2.69416 16.95055,-5.02909 7.10834,-2.33491 11.11817,-3.59216 4.00978,-1.25729 7.65508,-2.51457 3.64531,-1.25726 14.58113,-5.38827 10.93576,-4.13101 20.50456,-8.35186 9.5688,-4.22085 10.20674,-4.31063 0.6379,-0.0899 9.20432,-4.0412 8.56643,-3.95143 15.49249,-7.18439 6.92601,-3.23298 13.66982,-6.46596 6.74376,-3.23299 16.76833,-8.44164 l 10.02451,-5.20871 h 2.36946 z"
           id="svg_3" />
        <path
           style="display:inline;fill:none;fill-opacity:1;fill-rule:evenodd;stroke:#fffffa;stroke-width:48.70954132;stroke-linecap:butt;stroke-linejoin:miter;stroke-miterlimit:4;stroke-dasharray:none;stroke-opacity:1;marker-end:url(#TriangleOutS-2)"
           d="M 922.65939,881.3834 H 654.23828"
           id="path27323-1"
           inkscape:connector-curvature="0"
           inkscape:connector-type="polyline" />
        <path
           style="display:inline;fill:none;fill-rule:evenodd;stroke:#fffffa;stroke-width:48.70953369;stroke-linecap:butt;stroke-linejoin:miter;stroke-miterlimit:4;stroke-dasharray:none;stroke-opacity:1;marker-end:url(#TriangleOutS)"
           d="M 654.23828,761.45302 H 922.65939"
           id="path27323"
           inkscape:connector-curvature="0"
           inkscape:connector-type="polyline" />
      </g>
    </g>
  </g>
</svg>
