<?xml version="1.0" encoding="UTF-8" standalone="no"?>
<svg
   xmlns:dc="http://purl.org/dc/elements/1.1/"
   xmlns:cc="http://creativecommons.org/ns#"
   xmlns:rdf="http://www.w3.org/1999/02/22-rdf-syntax-ns#"
   xmlns:svg="http://www.w3.org/2000/svg"
   xmlns="http://www.w3.org/2000/svg"
   xmlns:sodipodi="http://sodipodi.sourceforge.net/DTD/sodipodi-0.dtd"
   xmlns:inkscape="http://www.inkscape.org/namespaces/inkscape"
   width="100%"
   height="100%"
   viewBox="0 0 300 300"
   version="1.1"
   xml:space="preserve"
   style="fill-rule:evenodd;clip-rule:evenodd;stroke-linejoin:round;stroke-miterlimit:1.41421;"
   id="svg34733"
   sodipodi:docname="sq_hdisk.svg"
   inkscape:version="0.92.4 (5da689c313, 2019-01-14)"><metadata
   id="metadata34739"><rdf:RDF><cc:Work
       rdf:about=""><dc:format>image/svg+xml</dc:format><dc:type
         rdf:resource="http://purl.org/dc/dcmitype/StillImage" /><dc:title></dc:title></cc:Work></rdf:RDF></metadata><defs
   id="defs34737" /><sodipodi:namedview
   pagecolor="#ffffff"
   bordercolor="#666666"
   borderopacity="1"
   objecttolerance="10"
   gridtolerance="10"
   guidetolerance="10"
   inkscape:pageopacity="0"
   inkscape:pageshadow="2"
   inkscape:window-width="1916"
   inkscape:window-height="1009"
   id="namedview34735"
   showgrid="false"
   inkscape:snap-object-midpoints="true"
   inkscape:snap-center="true"
   inkscape:zoom="2.6488542"
   inkscape:cx="86.765111"
   inkscape:cy="150"
   inkscape:window-x="0"
   inkscape:window-y="69"
   inkscape:window-maximized="0"
   inkscape:current-layer="Background"><inkscape:grid
     type="xygrid"
     id="grid35284" /></sodipodi:namedview>
    <g
   id="Background">
        <g
   id="g34730">
            <path
   d="M 300,30.271 C 300,13.564 286.436,0 269.729,0 H 30.271 C 13.564,0 0,13.564 0,30.271 V 269.729 C 0,286.436 13.564,300 30.271,300 H 269.729 C 286.436,300 300,286.436 300,269.729 Z"
   style="fill:#fffefe"
   id="path34726"
   inkscape:connector-curvature="0" />
            <path
   d="m 269.925,0.001 0.195,0.001 0.195,0.004 0.195,0.004 0.195,0.005 0.194,0.007 0.194,0.008 0.193,0.009 0.193,0.011 0.193,0.011 0.193,0.013 0.192,0.014 0.192,0.016 0.191,0.016 0.192,0.018 0.191,0.018 0.19,0.02 0.19,0.022 0.19,0.022 0.19,0.023 0.189,0.025 0.188,0.026 0.189,0.027 0.188,0.028 0.187,0.029 0.188,0.031 0.186,0.031 0.187,0.033 0.186,0.034 0.186,0.035 0.185,0.036 0.185,0.037 0.184,0.039 0.184,0.039 0.184,0.041 0.183,0.042 0.183,0.043 0.182,0.043 0.182,0.046 0.182,0.046 0.181,0.047 0.18,0.048 0.181,0.05 0.179,0.05 0.18,0.052 0.179,0.052 0.178,0.054 0.178,0.055 0.177,0.056 0.177,0.057 0.177,0.058 0.176,0.059 0.175,0.06 0.175,0.061 0.175,0.062 0.174,0.063 0.174,0.064 0.173,0.066 0.172,0.066 0.172,0.067 0.172,0.068 0.171,0.07 0.17,0.07 0.17,0.071 0.17,0.073 0.169,0.073 0.168,0.074 0.168,0.076 0.167,0.076 0.167,0.077 0.166,0.079 0.166,0.079 0.165,0.08 0.165,0.081 0.164,0.083 0.163,0.083 0.163,0.084 0.162,0.085 0.162,0.086 0.161,0.087 0.161,0.088 0.16,0.088 0.159,0.09 0.159,0.091 0.158,0.092 0.158,0.092 0.157,0.094 0.156,0.094 0.156,0.095 0.155,0.096 0.154,0.098 0.154,0.098 0.153,0.099 0.153,0.099 0.152,0.101 0.151,0.102 0.151,0.102 0.15,0.104 0.149,0.104 0.149,0.105 0.148,0.106 0.147,0.107 0.147,0.107 0.146,0.109 0.145,0.109 0.145,0.111 0.144,0.111 0.143,0.112 0.143,0.113 0.142,0.113 0.141,0.115 0.141,0.115 0.139,0.116 0.14,0.117 0.138,0.118 0.138,0.118 0.137,0.12 0.136,0.12 0.135,0.121 0.135,0.122 0.134,0.122 0.134,0.124 0.132,0.124 0.132,0.125 0.131,0.125 0.13,0.127 0.13,0.127 0.129,0.128 0.128,0.129 0.127,0.13 0.127,0.13 0.125,0.131 0.125,0.132 0.124,0.132 0.124,0.134 0.122,0.134 0.122,0.135 0.121,0.135 0.12,0.136 0.12,0.137 0.118,0.138 0.118,0.138 0.117,0.14 0.116,0.139 0.115,0.141 0.115,0.141 0.113,0.142 0.113,0.143 0.112,0.143 0.111,0.144 0.111,0.145 0.109,0.145 0.109,0.146 0.107,0.147 0.107,0.147 0.106,0.148 0.105,0.149 0.104,0.149 0.104,0.15 0.102,0.151 0.102,0.151 0.101,0.152 0.099,0.153 0.099,0.153 0.098,0.154 0.098,0.154 0.096,0.155 0.095,0.156 0.094,0.156 0.094,0.157 0.092,0.158 0.092,0.158 0.091,0.159 0.09,0.159 0.088,0.16 0.088,0.161 0.087,0.161 0.086,0.162 0.085,0.162 0.084,0.163 0.083,0.163 0.083,0.164 0.081,0.165 0.08,0.165 0.079,0.166 0.079,0.166 0.077,0.167 0.076,0.167 0.076,0.168 0.074,0.168 0.073,0.169 0.073,0.17 0.071,0.17 0.07,0.17 0.07,0.171 0.068,0.172 0.067,0.172 0.066,0.172 0.066,0.173 0.064,0.174 0.063,0.174 0.062,0.175 0.061,0.175 0.06,0.175 0.059,0.176 0.058,0.177 0.057,0.177 0.056,0.177 0.055,0.178 0.054,0.178 0.052,0.179 0.052,0.18 0.05,0.179 0.05,0.181 0.048,0.18 0.047,0.181 0.046,0.182 0.046,0.182 0.043,0.182 0.043,0.183 0.042,0.183 0.041,0.184 0.039,0.184 0.039,0.184 0.037,0.185 0.036,0.185 0.035,0.186 0.034,0.186 0.033,0.187 0.031,0.186 0.031,0.188 0.029,0.187 0.028,0.188 0.027,0.189 0.026,0.188 0.025,0.189 0.023,0.19 0.022,0.19 0.022,0.19 0.02,0.19 0.018,0.191 0.018,0.192 0.016,0.191 0.016,0.192 0.014,0.192 0.013,0.193 0.011,0.193 0.011,0.193 0.009,0.193 0.008,0.194 0.007,0.194 0.005,0.195 0.004,0.195 0.004,0.195 0.001,0.195 10e-4,0.196 v 239.458 l -10e-4,0.196 -0.001,0.195 -0.004,0.195 -0.004,0.195 -0.005,0.195 -0.007,0.194 -0.008,0.194 -0.009,0.193 -0.011,0.193 -0.011,0.193 -0.013,0.193 -0.014,0.192 -0.016,0.192 -0.016,0.191 -0.018,0.192 -0.018,0.191 -0.02,0.19 -0.022,0.19 -0.022,0.19 -0.023,0.19 -0.025,0.189 -0.026,0.188 -0.027,0.189 -0.028,0.188 -0.029,0.187 -0.031,0.188 -0.031,0.186 -0.033,0.187 -0.034,0.186 -0.035,0.186 -0.036,0.185 -0.037,0.185 -0.039,0.184 -0.039,0.184 -0.041,0.184 -0.042,0.183 -0.043,0.183 -0.043,0.182 -0.046,0.182 -0.046,0.182 -0.047,0.181 -0.048,0.18 -0.05,0.181 -0.05,0.179 -0.052,0.18 -0.052,0.179 -0.054,0.178 -0.055,0.178 -0.056,0.177 -0.057,0.177 -0.058,0.177 -0.059,0.176 -0.06,0.175 -0.061,0.175 -0.062,0.175 -0.063,0.174 -0.064,0.174 -0.066,0.173 -0.066,0.172 -0.067,0.172 -0.068,0.172 -0.07,0.171 -0.07,0.17 -0.071,0.17 -0.073,0.17 -0.073,0.169 -0.074,0.168 -0.076,0.168 -0.076,0.167 -0.077,0.167 -0.079,0.166 -0.079,0.166 -0.08,0.165 -0.081,0.165 -0.083,0.164 -0.083,0.163 -0.084,0.163 -0.085,0.162 -0.086,0.162 -0.087,0.161 -0.088,0.161 -0.088,0.16 -0.09,0.159 -0.091,0.159 -0.092,0.158 -0.092,0.158 -0.094,0.157 -0.094,0.156 -0.095,0.156 -0.096,0.155 -0.098,0.154 -0.098,0.154 -0.099,0.153 -0.099,0.153 -0.101,0.152 -0.102,0.151 -0.102,0.151 -0.104,0.15 -0.104,0.149 -0.105,0.149 -0.106,0.148 -0.107,0.147 -0.107,0.147 -0.109,0.146 -0.109,0.145 -0.111,0.145 -0.111,0.144 -0.112,0.143 -0.113,0.143 -0.113,0.142 -0.115,0.141 -0.115,0.141 -0.116,0.139 -0.117,0.14 -0.118,0.138 -0.118,0.138 -0.12,0.137 -0.12,0.136 -0.121,0.135 -0.122,0.135 -0.122,0.134 -0.124,0.134 -0.124,0.132 -0.125,0.132 -0.125,0.131 -0.127,0.13 -0.127,0.13 -0.128,0.129 -0.129,0.128 -0.13,0.127 -0.13,0.127 -0.131,0.125 -0.132,0.125 -0.132,0.124 -0.134,0.124 -0.134,0.122 -0.135,0.122 -0.135,0.121 -0.136,0.12 -0.137,0.12 -0.138,0.118 -0.138,0.118 -0.14,0.117 -0.139,0.116 -0.141,0.115 -0.141,0.115 -0.142,0.113 -0.143,0.113 -0.143,0.112 -0.144,0.111 -0.145,0.111 -0.145,0.109 -0.146,0.109 -0.147,0.107 -0.147,0.107 -0.148,0.106 -0.149,0.105 -0.149,0.104 -0.15,0.104 -0.151,0.102 -0.151,0.102 -0.152,0.101 -0.153,0.099 -0.153,0.099 -0.154,0.098 -0.154,0.098 -0.155,0.096 -0.156,0.095 -0.156,0.094 -0.157,0.094 -0.158,0.092 -0.158,0.092 -0.159,0.091 -0.159,0.09 -0.16,0.088 -0.161,0.088 -0.161,0.087 -0.162,0.086 -0.162,0.085 -0.163,0.084 -0.163,0.083 -0.164,0.083 -0.165,0.081 -0.165,0.08 -0.166,0.079 -0.166,0.079 -0.167,0.077 -0.167,0.076 -0.168,0.076 -0.168,0.074 -0.169,0.073 -0.17,0.073 -0.17,0.071 -0.17,0.07 -0.171,0.07 -0.172,0.068 -0.172,0.067 -0.172,0.066 -0.173,0.066 -0.174,0.064 -0.174,0.063 -0.175,0.062 -0.175,0.061 -0.175,0.06 -0.176,0.059 -0.177,0.058 -0.177,0.057 -0.177,0.056 -0.178,0.055 -0.178,0.054 -0.179,0.052 -0.18,0.052 -0.179,0.05 -0.181,0.05 -0.18,0.048 -0.181,0.047 -0.182,0.046 -0.182,0.046 -0.182,0.043 -0.183,0.043 -0.183,0.042 -0.184,0.041 -0.184,0.039 -0.184,0.039 -0.185,0.037 -0.185,0.036 -0.186,0.035 -0.186,0.034 -0.187,0.033 -0.186,0.031 -0.188,0.031 -0.187,0.029 -0.188,0.028 -0.189,0.027 -0.188,0.026 -0.189,0.025 -0.19,0.023 -0.19,0.022 -0.19,0.022 -0.19,0.02 -0.191,0.018 -0.192,0.018 -0.191,0.016 -0.192,0.016 -0.192,0.014 -0.193,0.013 -0.193,0.011 -0.193,0.011 -0.193,0.009 -0.194,0.008 -0.194,0.007 -0.195,0.005 -0.195,0.004 -0.195,0.004 -0.195,0.001 -0.196,10e-4 H 30.271 l -0.196,-10e-4 -0.195,-0.001 -0.195,-0.004 -0.195,-0.004 -0.195,-0.005 -0.194,-0.007 -0.194,-0.008 -0.193,-0.009 -0.193,-0.011 -0.193,-0.011 -0.193,-0.013 -0.192,-0.014 -0.192,-0.016 -0.191,-0.016 -0.192,-0.018 -0.191,-0.018 -0.19,-0.02 -0.19,-0.022 -0.19,-0.022 -0.19,-0.023 -0.189,-0.025 -0.188,-0.026 -0.189,-0.027 -0.188,-0.028 -0.187,-0.029 -0.188,-0.031 -0.186,-0.031 -0.187,-0.033 -0.186,-0.034 -0.186,-0.035 -0.185,-0.036 -0.185,-0.037 -0.184,-0.039 -0.184,-0.039 -0.184,-0.041 -0.183,-0.042 -0.183,-0.043 -0.182,-0.043 -0.182,-0.046 -0.182,-0.046 -0.181,-0.047 -0.18,-0.048 -0.181,-0.05 -0.179,-0.05 -0.18,-0.052 -0.179,-0.052 -0.178,-0.054 -0.178,-0.055 -0.177,-0.056 -0.177,-0.057 -0.177,-0.058 -0.176,-0.059 -0.175,-0.06 -0.175,-0.061 -0.175,-0.062 -0.174,-0.063 -0.174,-0.064 -0.173,-0.066 -0.172,-0.066 -0.172,-0.067 -0.172,-0.068 -0.171,-0.07 -0.17,-0.07 -0.17,-0.071 -0.17,-0.073 -0.169,-0.073 -0.168,-0.074 -0.168,-0.076 -0.167,-0.076 -0.167,-0.077 -0.166,-0.079 -0.166,-0.079 -0.165,-0.08 -0.165,-0.081 -0.164,-0.083 -0.163,-0.083 -0.163,-0.084 -0.162,-0.085 -0.162,-0.086 -0.161,-0.087 -0.161,-0.088 -0.16,-0.088 -0.159,-0.09 -0.159,-0.091 -0.158,-0.092 -0.158,-0.092 -0.157,-0.094 -0.156,-0.094 -0.156,-0.095 -0.155,-0.096 -0.154,-0.098 -0.154,-0.098 -0.153,-0.099 -0.153,-0.099 -0.152,-0.101 -0.151,-0.102 -0.151,-0.102 -0.15,-0.104 -0.149,-0.104 -0.149,-0.105 -0.148,-0.106 -0.147,-0.107 -0.147,-0.107 -0.146,-0.109 -0.145,-0.109 -0.145,-0.111 -0.144,-0.111 -0.143,-0.112 -0.143,-0.113 -0.142,-0.113 -0.141,-0.115 -0.141,-0.115 -0.139,-0.116 -0.14,-0.117 -0.138,-0.118 -0.138,-0.118 -0.137,-0.12 -0.136,-0.12 -0.135,-0.121 -0.135,-0.122 -0.134,-0.122 -0.134,-0.124 -0.132,-0.124 -0.132,-0.125 -0.131,-0.125 -0.13,-0.127 -0.13,-0.127 -0.129,-0.128 -0.128,-0.129 -0.127,-0.13 -0.127,-0.13 -0.125,-0.131 -0.125,-0.132 -0.124,-0.132 -0.124,-0.134 -0.122,-0.134 -0.122,-0.135 -0.121,-0.135 -0.12,-0.136 -0.12,-0.137 -0.118,-0.138 -0.118,-0.138 -0.117,-0.14 L 6.916,288.98 6.801,288.839 6.686,288.698 6.573,288.556 6.46,288.413 6.348,288.27 6.237,288.126 6.126,287.981 6.017,287.836 5.908,287.69 5.801,287.543 5.694,287.396 5.588,287.248 5.483,287.099 5.379,286.95 5.275,286.8 5.173,286.649 5.071,286.498 4.97,286.346 4.871,286.193 4.772,286.04 4.674,285.886 4.576,285.732 4.48,285.577 4.385,285.421 4.291,285.265 4.197,285.108 4.105,284.95 l -0.092,-0.158 -0.091,-0.159 -0.09,-0.159 -0.088,-0.16 -0.088,-0.161 -0.087,-0.161 -0.086,-0.162 -0.085,-0.162 -0.084,-0.163 -0.083,-0.163 -0.083,-0.164 -0.081,-0.165 -0.08,-0.165 -0.079,-0.166 -0.079,-0.166 -0.077,-0.167 -0.076,-0.167 -0.076,-0.168 -0.074,-0.168 -0.073,-0.169 -0.073,-0.17 -0.071,-0.17 -0.07,-0.17 -0.07,-0.171 -0.068,-0.172 -0.067,-0.172 -0.066,-0.172 -0.066,-0.173 -0.064,-0.174 -0.063,-0.174 -0.062,-0.175 -0.061,-0.175 -0.06,-0.175 -0.059,-0.176 -0.058,-0.177 -0.057,-0.177 -0.056,-0.177 -0.055,-0.178 -0.054,-0.178 -0.052,-0.179 -0.052,-0.18 -0.05,-0.179 -0.05,-0.181 -0.048,-0.18 -0.047,-0.181 -0.046,-0.182 -0.046,-0.182 -0.043,-0.182 -0.043,-0.183 -0.042,-0.183 -0.041,-0.184 -0.039,-0.184 -0.039,-0.184 -0.037,-0.185 -0.036,-0.185 -0.035,-0.186 -0.034,-0.186 -0.033,-0.187 -0.031,-0.186 -0.031,-0.188 -0.029,-0.187 -0.028,-0.188 -0.027,-0.189 -0.026,-0.188 -0.025,-0.189 -0.023,-0.19 -0.022,-0.19 -0.022,-0.19 -0.02,-0.19 L 0.138,272.632 0.12,272.44 0.104,272.249 0.088,272.057 0.074,271.865 0.061,271.672 0.05,271.479 0.039,271.286 0.03,271.093 0.022,270.899 0.015,270.705 0.01,270.51 0.006,270.315 0.002,270.12 0.001,269.925 0,269.729 V 30.271 L 0.001,30.075 0.002,29.88 0.006,29.685 0.01,29.49 0.015,29.295 0.022,29.101 0.03,28.907 0.039,28.714 0.05,28.521 0.061,28.328 0.074,28.135 0.088,27.943 0.104,27.751 0.12,27.56 l 0.018,-0.192 0.018,-0.191 0.02,-0.19 0.022,-0.19 0.022,-0.19 0.023,-0.19 0.025,-0.189 0.026,-0.188 0.027,-0.189 0.028,-0.188 0.029,-0.187 0.031,-0.188 0.031,-0.186 0.033,-0.187 0.034,-0.186 0.035,-0.186 0.036,-0.185 0.037,-0.185 0.039,-0.184 0.039,-0.184 0.041,-0.184 0.042,-0.183 0.043,-0.183 0.043,-0.182 0.046,-0.182 0.046,-0.182 0.047,-0.181 0.048,-0.18 0.05,-0.181 0.05,-0.179 0.052,-0.18 0.052,-0.179 0.054,-0.178 0.055,-0.178 0.056,-0.177 0.057,-0.177 0.058,-0.177 0.059,-0.176 0.06,-0.175 0.061,-0.175 0.062,-0.175 0.063,-0.174 0.064,-0.174 0.066,-0.173 0.066,-0.172 0.067,-0.172 0.068,-0.172 0.07,-0.171 0.07,-0.17 0.071,-0.17 0.073,-0.17 L 2.526,18.154 2.6,17.986 2.676,17.818 2.752,17.651 2.829,17.484 2.908,17.318 2.987,17.152 3.067,16.987 3.148,16.822 3.231,16.658 3.314,16.495 3.398,16.332 3.483,16.17 3.569,16.008 3.656,15.847 3.744,15.686 3.832,15.526 3.922,15.367 4.013,15.208 4.105,15.05 4.197,14.892 4.291,14.735 4.385,14.579 4.48,14.423 4.576,14.268 4.674,14.114 4.772,13.96 4.871,13.807 4.97,13.654 5.071,13.502 5.173,13.351 5.275,13.2 5.379,13.05 5.483,12.901 5.588,12.752 5.694,12.604 5.801,12.457 5.908,12.31 6.017,12.164 6.126,12.019 6.237,11.874 6.348,11.73 6.46,11.587 6.573,11.444 6.686,11.302 6.801,11.161 6.916,11.02 7.032,10.881 7.149,10.741 7.267,10.603 7.385,10.465 7.505,10.328 7.625,10.192 7.746,10.057 7.868,9.922 7.99,9.788 8.114,9.654 8.238,9.522 8.363,9.39 8.488,9.259 8.615,9.129 8.742,8.999 8.87,8.87 8.999,8.742 9.129,8.615 9.259,8.488 9.39,8.363 9.522,8.238 9.654,8.114 9.788,7.99 9.922,7.868 10.057,7.746 10.192,7.625 10.328,7.505 10.465,7.385 10.603,7.267 10.741,7.149 10.881,7.032 11.02,6.916 11.161,6.801 11.302,6.686 11.444,6.573 11.587,6.46 11.73,6.348 11.874,6.237 12.019,6.126 12.164,6.017 12.31,5.908 12.457,5.801 12.604,5.694 12.752,5.588 12.901,5.483 13.05,5.379 13.2,5.275 13.351,5.173 13.502,5.071 13.654,4.97 13.807,4.871 13.96,4.772 14.114,4.674 14.268,4.576 14.423,4.48 14.579,4.385 14.735,4.291 14.892,4.197 15.05,4.105 l 0.158,-0.092 0.159,-0.091 0.159,-0.09 0.16,-0.088 0.161,-0.088 0.161,-0.087 0.162,-0.086 0.162,-0.085 0.163,-0.084 0.163,-0.083 0.164,-0.083 0.165,-0.081 0.165,-0.08 0.166,-0.079 0.166,-0.079 0.167,-0.077 0.167,-0.076 0.168,-0.076 0.168,-0.074 0.169,-0.073 0.17,-0.073 0.17,-0.071 0.17,-0.07 0.171,-0.07 0.172,-0.068 0.172,-0.067 0.172,-0.066 0.173,-0.066 0.174,-0.064 0.174,-0.063 0.175,-0.062 0.175,-0.061 0.175,-0.06 0.176,-0.059 0.177,-0.058 0.177,-0.057 0.177,-0.056 0.178,-0.055 0.178,-0.054 0.179,-0.052 0.18,-0.052 0.179,-0.05 0.181,-0.05 0.18,-0.048 0.181,-0.047 0.182,-0.046 0.182,-0.046 0.182,-0.043 0.183,-0.043 0.183,-0.042 0.184,-0.041 0.184,-0.039 0.184,-0.039 0.185,-0.037 0.185,-0.036 0.186,-0.035 0.186,-0.034 0.187,-0.033 0.186,-0.031 0.188,-0.031 0.187,-0.029 0.188,-0.028 0.189,-0.027 0.188,-0.026 0.189,-0.025 0.19,-0.023 0.19,-0.022 0.19,-0.022 0.19,-0.02 L 27.368,0.138 27.56,0.12 27.751,0.104 27.943,0.088 28.135,0.074 28.328,0.061 28.521,0.05 28.714,0.039 28.907,0.03 29.101,0.022 29.295,0.015 29.49,0.01 29.685,0.006 29.88,0.002 30.075,0.001 30.271,0 H 269.729 Z M 30.296,16 h -0.12 l -0.093,0.001 -0.094,0.002 -0.093,0.002 -0.093,0.002 -0.093,0.004 -0.093,0.004 -0.092,0.004 -0.092,0.005 -0.092,0.005 -0.091,0.007 -0.091,0.006 -0.091,0.007 -0.091,0.008 -0.091,0.009 -0.09,0.008 -0.09,0.01 -0.09,0.01 -0.089,0.01 -0.089,0.011 -0.09,0.012 -0.088,0.012 -0.089,0.013 -0.088,0.013 -0.088,0.014 -0.088,0.014 -0.088,0.015 -0.087,0.015 -0.088,0.016 -0.087,0.017 -0.086,0.017 -0.087,0.017 -0.086,0.018 -0.086,0.018 -0.086,0.019 -0.086,0.02 -0.085,0.02 -0.085,0.021 -0.085,0.021 -0.085,0.021 -0.085,0.022 -0.084,0.023 -0.084,0.023 -0.084,0.023 -0.084,0.025 -0.084,0.024 -0.083,0.025 -0.083,0.026 -0.083,0.026 -0.082,0.026 -0.083,0.028 -0.082,0.027 -0.082,0.028 -0.082,0.029 -0.081,0.029 -0.082,0.029 -0.081,0.03 -0.081,0.031 -0.081,0.031 -0.08,0.031 -0.08,0.032 -0.08,0.033 -0.08,0.033 -0.08,0.033 -0.079,0.034 -0.079,0.034 -0.079,0.035 -0.079,0.035 -0.078,0.036 -0.078,0.036 -0.078,0.037 -0.078,0.037 -0.078,0.038 -0.077,0.038 -0.077,0.039 -0.077,0.039 -0.076,0.039 -0.077,0.04 -0.076,0.041 -0.076,0.041 -0.075,0.041 -0.075,0.042 -0.075,0.042 -0.075,0.043 -0.075,0.043 -0.074,0.044 -0.074,0.044 -0.074,0.044 -0.073,0.045 -0.073,0.046 -0.073,0.045 -0.073,0.047 -0.072,0.046 -0.073,0.048 -0.071,0.047 -0.072,0.048 -0.071,0.049 -0.071,0.049 -0.071,0.049 -0.07,0.05 -0.07,0.05 -0.07,0.051 -0.07,0.051 -0.069,0.051 -0.069,0.052 -0.068,0.052 -0.069,0.053 -0.068,0.053 -0.067,0.053 -0.068,0.054 -0.067,0.055 -0.066,0.054 -0.067,0.056 -0.066,0.055 -0.066,0.056 -0.065,0.056 -0.065,0.057 -0.065,0.057 -0.064,0.058 -0.064,0.057 -0.064,0.059 -0.063,0.058 -0.063,0.059 -0.063,0.06 -0.062,0.06 -0.062,0.06 -0.062,0.06 -0.061,0.061 -0.061,0.061 -0.06,0.062 -0.06,0.062 -0.06,0.062 -0.06,0.063 -0.059,0.063 -0.058,0.063 -0.059,0.064 -0.057,0.064 -0.058,0.064 -0.057,0.065 -0.057,0.065 -0.056,0.065 -0.056,0.066 -0.055,0.066 -0.056,0.067 -0.054,0.066 -0.055,0.067 -0.054,0.068 -0.053,0.067 -0.053,0.068 -0.053,0.069 -0.052,0.068 -0.052,0.069 -0.051,0.069 -0.051,0.07 -0.051,0.07 -0.05,0.07 -0.05,0.07 -0.049,0.071 -0.049,0.071 -0.049,0.071 -0.048,0.072 -0.047,0.071 -0.048,0.073 -0.046,0.072 -0.047,0.073 -0.045,0.073 -0.046,0.073 -0.045,0.073 -0.044,0.074 -0.044,0.074 -0.044,0.074 -0.043,0.075 -0.043,0.075 -0.042,0.075 -0.042,0.075 -0.041,0.075 -0.041,0.076 -0.041,0.076 -0.04,0.077 -0.039,0.076 -0.039,0.077 -0.039,0.077 -0.038,0.077 -0.038,0.078 -0.037,0.078 -0.037,0.078 -0.036,0.078 -0.036,0.078 -0.035,0.079 -0.035,0.079 -0.034,0.079 -0.034,0.079 -0.033,0.08 -0.033,0.08 -0.033,0.08 -0.032,0.08 -0.031,0.08 -0.031,0.081 -0.031,0.081 -0.03,0.081 -0.029,0.082 -0.029,0.081 -0.029,0.082 -0.028,0.082 -0.027,0.082 -0.028,0.083 -0.026,0.082 -0.026,0.083 -0.026,0.083 -0.025,0.083 -0.024,0.084 -0.025,0.084 -0.023,0.084 -0.023,0.084 -0.023,0.084 -0.022,0.085 -0.021,0.085 -0.021,0.085 -0.021,0.085 -0.02,0.085 -0.02,0.086 -0.019,0.086 -0.018,0.086 -0.018,0.086 -0.017,0.087 -0.017,0.086 -0.017,0.087 -0.016,0.088 -0.015,0.087 -0.015,0.088 -0.014,0.088 -0.014,0.088 -0.013,0.088 -0.013,0.089 -0.012,0.088 -0.012,0.09 -0.011,0.089 -0.01,0.089 -0.01,0.09 -0.01,0.09 -0.008,0.09 -0.009,0.091 -0.008,0.091 -0.007,0.091 -0.006,0.091 -0.007,0.091 -0.005,0.092 -0.005,0.092 -0.004,0.092 -0.004,0.093 -0.004,0.093 -0.002,0.093 -0.002,0.093 -0.002,0.094 L 16,30.176 v 0.12 239.408 0.12 l 0.001,0.093 0.002,0.094 0.002,0.093 0.002,0.093 0.004,0.093 0.004,0.093 0.004,0.092 0.005,0.092 0.005,0.092 0.007,0.091 0.006,0.091 0.007,0.091 0.008,0.091 0.009,0.091 0.008,0.09 0.01,0.09 0.01,0.09 0.01,0.089 0.011,0.089 0.012,0.09 0.012,0.088 0.013,0.089 0.013,0.088 0.014,0.088 0.014,0.088 0.015,0.088 0.015,0.087 0.016,0.087 0.017,0.087 0.017,0.087 0.017,0.087 0.018,0.086 0.019,0.086 0.018,0.086 0.02,0.086 0.02,0.085 0.021,0.085 0.021,0.086 0.021,0.084 0.022,0.085 0.023,0.084 0.023,0.084 0.023,0.084 0.025,0.084 0.024,0.084 0.025,0.083 0.026,0.083 0.026,0.083 0.026,0.083 0.028,0.082 0.027,0.082 0.028,0.082 0.029,0.082 0.029,0.081 0.029,0.082 0.03,0.081 0.031,0.081 0.031,0.081 0.031,0.08 0.032,0.08 0.033,0.08 0.033,0.08 0.033,0.08 0.034,0.08 0.034,0.078 0.035,0.079 0.035,0.079 0.036,0.078 0.036,0.078 0.037,0.078 0.037,0.078 0.038,0.078 0.038,0.077 0.039,0.077 0.039,0.077 0.039,0.077 0.04,0.076 0.04,0.075 0.041,0.076 0.042,0.077 0.042,0.074 0.042,0.075 0.043,0.075 0.043,0.074 0.044,0.075 0.044,0.074 0.044,0.074 0.045,0.073 0.045,0.073 0.047,0.074 0.046,0.072 0.046,0.072 0.048,0.073 0.048,0.072 0.047,0.071 0.049,0.071 0.048,0.071 0.05,0.071 0.05,0.07 0.05,0.071 0.051,0.069 0.05,0.069 0.052,0.07 0.052,0.069 0.052,0.068 0.053,0.069 0.053,0.068 0.053,0.067 0.055,0.068 0.054,0.067 0.055,0.067 0.054,0.065 0.056,0.067 0.056,0.066 0.056,0.065 0.057,0.065 0.057,0.065 0.057,0.064 0.058,0.064 0.059,0.064 0.059,0.064 0.059,0.062 0.058,0.062 0.061,0.064 0.06,0.061 0.06,0.062 0.061,0.061 0.061,0.061 0.062,0.061 0.061,0.059 0.063,0.06 0.063,0.06 0.063,0.059 0.063,0.058 0.064,0.059 0.064,0.057 0.064,0.058 0.065,0.057 0.065,0.057 0.065,0.056 0.066,0.056 0.066,0.055 0.067,0.056 0.066,0.054 0.068,0.055 0.067,0.054 0.067,0.053 0.068,0.053 0.068,0.053 0.068,0.052 0.07,0.052 0.069,0.052 0.069,0.05 0.071,0.051 0.07,0.05 0.07,0.05 0.071,0.05 0.071,0.048 0.071,0.049 0.071,0.048 0.073,0.047 0.072,0.048 0.072,0.047 0.072,0.045 0.073,0.046 0.074,0.046 0.073,0.045 0.074,0.044 0.074,0.045 0.074,0.043 0.074,0.043 0.076,0.043 0.074,0.042 0.075,0.042 0.076,0.041 0.076,0.041 0.077,0.041 0.076,0.04 0.077,0.039 0.076,0.04 0.077,0.038 0.077,0.038 0.077,0.038 0.078,0.037 0.078,0.036 0.079,0.037 0.079,0.036 0.078,0.035 0.078,0.035 0.079,0.034 0.08,0.034 0.081,0.034 0.078,0.032 0.081,0.033 0.081,0.032 0.079,0.031 0.081,0.031 0.081,0.031 0.082,0.03 0.081,0.029 0.08,0.029 0.083,0.029 0.082,0.028 0.082,0.028 0.083,0.027 0.082,0.026 0.082,0.026 0.085,0.026 0.083,0.025 0.082,0.024 0.084,0.024 0.085,0.024 0.084,0.023 0.084,0.023 0.085,0.022 0.086,0.022 0.083,0.02 0.086,0.021 0.085,0.02 0.085,0.019 0.087,0.02 0.086,0.018 0.086,0.018 0.086,0.017 0.088,0.017 0.087,0.017 0.087,0.016 0.087,0.015 0.087,0.015 0.088,0.014 0.089,0.014 0.088,0.013 0.088,0.013 0.091,0.012 0.088,0.012 0.089,0.011 0.089,0.01 0.09,0.01 0.09,0.01 0.09,0.008 0.09,0.009 0.091,0.008 0.092,0.007 0.092,0.007 0.091,0.006 0.09,0.005 0.093,0.005 0.093,0.004 0.092,0.004 0.093,0.004 0.092,0.002 0.094,0.002 0.094,0.002 0.093,10e-4 h 0.12 239.408 0.12 l 0.093,-10e-4 0.094,-0.002 0.094,-0.002 0.092,-0.002 0.093,-0.004 0.092,-0.004 0.093,-0.004 0.093,-0.005 0.09,-0.005 0.091,-0.006 0.092,-0.007 0.092,-0.007 0.091,-0.008 0.09,-0.009 0.09,-0.008 0.09,-0.01 0.09,-0.01 0.089,-0.01 0.089,-0.011 0.088,-0.012 0.091,-0.012 0.088,-0.013 0.088,-0.013 0.089,-0.014 0.088,-0.014 0.087,-0.015 0.087,-0.015 0.087,-0.016 0.087,-0.017 0.088,-0.017 0.086,-0.017 0.086,-0.018 0.086,-0.018 0.087,-0.02 0.085,-0.019 0.085,-0.02 0.086,-0.021 0.084,-0.02 0.085,-0.022 0.085,-0.022 0.084,-0.023 0.084,-0.023 0.085,-0.024 0.084,-0.024 0.082,-0.024 0.083,-0.025 0.085,-0.026 0.082,-0.026 0.082,-0.026 0.083,-0.028 0.082,-0.027 0.082,-0.028 0.082,-0.029 0.081,-0.029 0.081,-0.029 0.082,-0.03 0.081,-0.031 0.081,-0.031 0.079,-0.031 0.081,-0.032 0.081,-0.033 0.078,-0.032 0.081,-0.034 0.081,-0.034 0.077,-0.034 0.078,-0.035 0.079,-0.035 0.079,-0.036 0.079,-0.036 0.078,-0.037 0.078,-0.037 0.077,-0.038 0.076,-0.038 0.078,-0.039 0.077,-0.039 0.076,-0.039 0.077,-0.04 0.075,-0.04 0.076,-0.041 0.077,-0.043 0.074,-0.041 0.075,-0.042 0.076,-0.043 0.074,-0.043 0.074,-0.043 0.074,-0.045 0.074,-0.044 0.073,-0.045 0.073,-0.046 0.074,-0.046 0.072,-0.045 0.071,-0.047 0.074,-0.048 0.072,-0.048 0.071,-0.047 0.071,-0.049 0.07,-0.048 0.072,-0.05 0.07,-0.05 0.071,-0.05 0.07,-0.051 0.068,-0.05 0.07,-0.052 0.07,-0.053 0.067,-0.051 0.069,-0.053 0.068,-0.053 0.067,-0.053 0.067,-0.054 0.068,-0.055 0.067,-0.055 0.065,-0.054 0.067,-0.057 0.066,-0.055 0.065,-0.056 0.065,-0.057 0.064,-0.057 0.065,-0.058 0.064,-0.057 0.064,-0.059 0.064,-0.059 0.062,-0.058 0.063,-0.06 0.063,-0.06 0.061,-0.059 0.062,-0.061 0.061,-0.061 0.061,-0.061 0.061,-0.062 0.059,-0.061 0.06,-0.063 0.06,-0.063 0.058,-0.062 0.059,-0.064 0.059,-0.064 0.057,-0.064 0.058,-0.065 0.057,-0.064 0.057,-0.065 0.056,-0.065 0.055,-0.066 0.057,-0.067 0.054,-0.065 0.055,-0.067 0.055,-0.068 0.054,-0.067 0.053,-0.067 0.053,-0.068 0.053,-0.069 0.051,-0.067 0.053,-0.07 0.052,-0.07 0.05,-0.068 0.051,-0.07 0.05,-0.071 0.05,-0.07 0.05,-0.072 0.048,-0.07 0.049,-0.071 0.047,-0.071 0.048,-0.072 0.048,-0.074 0.047,-0.071 0.045,-0.072 0.046,-0.074 0.046,-0.073 0.045,-0.073 0.044,-0.074 0.045,-0.074 0.043,-0.074 0.043,-0.074 0.043,-0.076 0.042,-0.075 0.041,-0.074 0.043,-0.077 0.041,-0.076 0.04,-0.075 0.04,-0.077 0.039,-0.076 0.039,-0.077 0.039,-0.078 0.038,-0.076 0.038,-0.077 0.037,-0.078 0.037,-0.078 0.036,-0.079 0.036,-0.079 0.035,-0.079 0.035,-0.078 0.034,-0.077 0.034,-0.081 0.034,-0.081 0.032,-0.078 0.033,-0.081 0.032,-0.081 0.031,-0.079 0.031,-0.081 0.031,-0.081 0.03,-0.082 0.029,-0.081 0.029,-0.081 0.029,-0.082 0.028,-0.082 0.027,-0.082 0.028,-0.083 0.026,-0.082 0.026,-0.082 0.026,-0.085 0.025,-0.083 0.024,-0.082 0.024,-0.084 0.024,-0.085 0.023,-0.084 0.023,-0.084 0.022,-0.085 0.022,-0.085 0.02,-0.084 0.021,-0.086 0.02,-0.085 0.019,-0.085 0.02,-0.087 0.018,-0.086 0.018,-0.086 0.017,-0.086 0.017,-0.088 0.017,-0.087 0.016,-0.087 0.015,-0.087 0.015,-0.087 0.014,-0.088 0.014,-0.089 0.013,-0.088 0.013,-0.088 0.012,-0.091 0.012,-0.088 0.011,-0.089 0.01,-0.089 0.01,-0.09 0.01,-0.09 0.008,-0.09 0.009,-0.09 0.008,-0.091 0.007,-0.092 0.007,-0.092 0.006,-0.091 0.005,-0.09 0.005,-0.093 0.004,-0.093 0.004,-0.092 0.004,-0.093 0.002,-0.092 0.002,-0.094 0.002,-0.094 10e-4,-0.093 v -0.12 -239.408 -0.12 l -10e-4,-0.093 -0.002,-0.094 -0.002,-0.094 -0.002,-0.092 -0.004,-0.093 -0.004,-0.092 -0.004,-0.093 -0.005,-0.093 -0.005,-0.09 -0.006,-0.091 -0.007,-0.092 -0.007,-0.092 -0.008,-0.091 -0.009,-0.09 -0.008,-0.09 -0.01,-0.09 -0.01,-0.09 -0.01,-0.089 -0.011,-0.089 -0.012,-0.088 -0.012,-0.091 -0.013,-0.088 -0.013,-0.088 -0.014,-0.089 -0.014,-0.088 -0.015,-0.087 -0.015,-0.087 -0.016,-0.087 -0.017,-0.087 -0.017,-0.088 -0.017,-0.086 -0.018,-0.086 -0.018,-0.086 -0.02,-0.087 -0.019,-0.085 -0.02,-0.085 -0.021,-0.086 -0.02,-0.083 -0.022,-0.086 -0.022,-0.085 -0.023,-0.084 -0.023,-0.084 -0.024,-0.085 -0.024,-0.084 -0.024,-0.082 -0.025,-0.083 -0.026,-0.085 -0.026,-0.082 -0.026,-0.082 -0.027,-0.083 -0.028,-0.082 -0.028,-0.082 -0.029,-0.083 -0.029,-0.08 -0.029,-0.081 -0.03,-0.082 -0.031,-0.081 -0.031,-0.081 -0.031,-0.079 -0.032,-0.081 -0.033,-0.081 -0.032,-0.078 -0.034,-0.081 -0.034,-0.08 -0.034,-0.079 -0.035,-0.078 -0.035,-0.078 -0.036,-0.079 -0.037,-0.079 -0.036,-0.078 -0.037,-0.078 -0.038,-0.077 -0.038,-0.077 -0.038,-0.077 -0.04,-0.076 -0.039,-0.077 -0.04,-0.076 -0.041,-0.077 -0.041,-0.076 -0.041,-0.076 -0.042,-0.075 -0.042,-0.074 -0.043,-0.076 -0.043,-0.074 -0.043,-0.074 -0.045,-0.074 -0.044,-0.074 -0.045,-0.073 -0.046,-0.074 -0.046,-0.073 -0.045,-0.072 -0.047,-0.072 -0.048,-0.072 -0.047,-0.073 -0.048,-0.071 -0.049,-0.071 -0.048,-0.071 -0.05,-0.071 -0.05,-0.07 -0.05,-0.07 -0.051,-0.071 -0.05,-0.069 -0.052,-0.069 -0.052,-0.07 -0.052,-0.068 -0.053,-0.068 -0.053,-0.068 -0.053,-0.067 -0.054,-0.067 -0.055,-0.068 -0.054,-0.066 -0.056,-0.067 -0.055,-0.066 -0.056,-0.066 -0.056,-0.065 -0.057,-0.065 -0.057,-0.065 -0.058,-0.064 -0.057,-0.064 -0.059,-0.064 -0.058,-0.063 -0.059,-0.063 -0.06,-0.063 -0.06,-0.063 -0.059,-0.061 -0.061,-0.062 -0.061,-0.061 -0.061,-0.061 -0.062,-0.06 -0.061,-0.06 -0.064,-0.061 -0.062,-0.058 -0.062,-0.059 -0.064,-0.059 -0.064,-0.059 -0.064,-0.058 -0.064,-0.057 -0.065,-0.057 -0.065,-0.057 -0.065,-0.056 -0.066,-0.056 -0.067,-0.056 -0.065,-0.054 -0.067,-0.055 -0.067,-0.054 -0.068,-0.055 -0.067,-0.053 -0.068,-0.053 -0.069,-0.053 -0.068,-0.052 -0.069,-0.052 -0.07,-0.052 -0.069,-0.05 -0.069,-0.051 -0.071,-0.05 -0.07,-0.05 -0.071,-0.05 -0.071,-0.048 -0.071,-0.049 -0.071,-0.047 -0.072,-0.048 -0.073,-0.048 -0.072,-0.046 -0.072,-0.046 -0.074,-0.047 -0.073,-0.045 -0.073,-0.045 -0.074,-0.044 -0.074,-0.044 -0.075,-0.044 -0.074,-0.043 -0.075,-0.043 -0.075,-0.042 -0.074,-0.042 -0.077,-0.042 -0.076,-0.041 -0.075,-0.04 -0.076,-0.04 -0.077,-0.039 -0.077,-0.039 -0.077,-0.039 -0.077,-0.038 -0.078,-0.038 -0.078,-0.037 -0.078,-0.037 -0.078,-0.036 -0.078,-0.036 -0.079,-0.035 -0.079,-0.035 -0.078,-0.034 -0.08,-0.034 -0.08,-0.033 -0.08,-0.033 -0.08,-0.033 -0.08,-0.032 -0.08,-0.031 -0.081,-0.031 -0.081,-0.031 -0.081,-0.03 -0.082,-0.029 -0.081,-0.029 -0.082,-0.029 -0.082,-0.028 -0.082,-0.027 -0.082,-0.028 -0.083,-0.026 -0.083,-0.026 -0.083,-0.026 -0.083,-0.025 -0.084,-0.024 -0.084,-0.025 -0.084,-0.023 -0.084,-0.023 -0.084,-0.023 -0.085,-0.022 -0.084,-0.021 -0.086,-0.021 -0.085,-0.021 -0.085,-0.02 -0.086,-0.02 -0.086,-0.018 -0.086,-0.019 -0.086,-0.018 -0.087,-0.017 -0.087,-0.017 -0.087,-0.017 -0.087,-0.016 -0.087,-0.015 -0.088,-0.015 -0.088,-0.014 -0.088,-0.014 -0.088,-0.013 -0.089,-0.013 -0.088,-0.012 -0.09,-0.012 -0.089,-0.011 -0.089,-0.01 -0.09,-0.01 -0.09,-0.01 -0.09,-0.008 -0.091,-0.009 -0.091,-0.008 -0.091,-0.007 -0.091,-0.006 -0.091,-0.007 -0.092,-0.005 -0.092,-0.005 -0.092,-0.004 -0.093,-0.004 -0.093,-0.004 -0.093,-0.002 -0.093,-0.002 -0.094,-0.002 L 269.824,16 h -0.12 z"
   style="fill:#e3292e"
   id="path34728"
   inkscape:connector-curvature="0" />
        </g>
    <g
   transform="translate(0,-1.0509796)"
   style="clip-rule:evenodd;fill-rule:evenodd;stroke-linejoin:round;stroke-miterlimit:1.41420996"
   id="g34689"><rect
     y="77.5"
     x="95"
     height="147.5"
     width="110"
     id="rect34613"
     style="opacity:1;fill:#e3292e;fill-opacity:1;fill-rule:nonzero;stroke:#e3292e;stroke-width:9.98462772;stroke-linecap:round;stroke-linejoin:round;stroke-miterlimit:1.41420996;stroke-dasharray:none;stroke-opacity:1;paint-order:normal" /><circle
     r="30"
     cy="130"
     cx="150"
     id="path34615"
     style="opacity:1;fill:#000000;fill-opacity:0;fill-rule:nonzero;stroke:#ffffff;stroke-width:30;stroke-linecap:round;stroke-linejoin:round;stroke-miterlimit:1.41420996;stroke-dasharray:none;stroke-opacity:1;paint-order:normal" /><path
     sodipodi:nodetypes="cccc"
     inkscape:connector-curvature="0"
     id="path34625"
     d="m 110,175 20,-20 -10,25 z"
     style="fill:#e3292e;fill-opacity:1;fill-rule:evenodd;stroke:#e3292e;stroke-width:10;stroke-linecap:round;stroke-linejoin:round;stroke-miterlimit:1.41420996;stroke-dasharray:none;stroke-opacity:1" /><circle
     r="5"
     cy="83.259689"
     cx="100"
     id="path34674"
     style="opacity:1;fill:#ffffff;fill-opacity:1;fill-rule:nonzero;stroke:#e3292e;stroke-width:0;stroke-linecap:round;stroke-linejoin:round;stroke-miterlimit:1.41420996;stroke-dasharray:none;stroke-opacity:1;paint-order:normal" /><circle
     r="5"
     cy="82.101959"
     cx="200"
     id="path34676"
     style="opacity:1;fill:#ffffff;fill-opacity:1;fill-rule:nonzero;stroke:#e3292e;stroke-width:0;stroke-linecap:round;stroke-linejoin:round;stroke-miterlimit:1.41420996;stroke-dasharray:none;stroke-opacity:1;paint-order:normal" /><circle
     r="5"
     cy="220"
     cx="200"
     id="path34678"
     style="opacity:1;fill:#ffffff;fill-opacity:1;fill-rule:nonzero;stroke:#e3292e;stroke-width:0;stroke-linecap:round;stroke-linejoin:round;stroke-miterlimit:1.41420996;stroke-dasharray:none;stroke-opacity:1;paint-order:normal" /><circle
     r="5"
     cy="220"
     cx="100"
     id="path34680"
     style="opacity:1;fill:#ffffff;fill-opacity:1;fill-rule:nonzero;stroke:#e3292e;stroke-width:0;stroke-linecap:round;stroke-linejoin:round;stroke-miterlimit:1.41420996;stroke-dasharray:none;stroke-opacity:1;paint-order:normal" /></g></g>
</svg>
